<svg width="1029" height="834" viewBox="0 0 1029 834" fill="none" xmlns="http://www.w3.org/2000/svg">
<g filter="url(#filter0_d_0_5)">
<mask id="path-1-inside-1_0_5" fill="white">
<path d="M83.264 332.329L83.5095 331.519C85.3184 325.549 92.1245 322.713 97.6372 325.631L104 329L142.299 349.062C144.75 350.345 147.396 351.213 150.13 351.63L175.5 355.5L232 365.5L279.755 369.173C282.565 369.39 285.391 369.129 288.114 368.403L299 365.5L333 355.5L361.685 351.268C362.893 351.089 364.113 351 365.334 351H401.558C403.182 351 404.803 350.842 406.396 350.527L477.5 336.5L577.124 321.286C578.373 321.096 579.634 321 580.898 321H616L762.557 314.228C765.821 314.078 769.082 314.568 772.157 315.672L776.477 317.223C783.173 319.626 790.575 319.063 796.831 315.675L854.72 284.318C857.547 282.787 860.052 280.725 862.097 278.245L892 242L934.775 182.59C936.25 180.542 937.406 178.282 938.204 175.888L951.717 135.349C952.567 132.8 953 130.13 953 127.443V109.969C953 104.785 951.388 99.7288 948.388 95.5008L934.428 75.8304C932.174 72.6541 929.209 70.0484 925.769 68.2211L916.843 63.4792C915.617 62.8275 914.338 62.2792 913.02 61.84L909.076 60.5254C905.09 59.1966 900.833 58.8941 896.698 59.6457L864.459 65.5075C860.864 66.1611 857.169 66.0118 853.639 65.0704L850.679 64.281C846.393 63.1382 842.716 60.3817 840.417 56.5887C836.585 50.2656 837.23 42.1995 842.019 36.566L848.048 29.4733C850 27.1767 852.351 25.252 854.988 23.7922L877.378 11.398C878.379 10.8439 879 9.78995 879 8.64579C879 6.90842 880.408 5.5 882.146 5.5H904.966C907.229 5.5 909.399 4.60116 910.999 3.0012C913.424 0.576193 917.065 -0.161029 920.242 1.12975L927.395 4.03555C929.776 5.00271 932.322 5.5 934.892 5.5C939.487 5.5 943.943 7.08992 947.5 10L950.04 12.0786C951.954 13.6445 954.351 14.5 956.824 14.5C960.646 14.5 964.179 16.5369 966.094 19.845L971.479 29.1464C973.039 31.8409 975.917 33.5 979.031 33.5C981.837 33.5 984.472 34.8497 986.112 37.1271L992.5 46L1008.26 71.453C1010.7 75.4059 1012 79.9629 1012 84.6119V105.113C1012 107.031 1012.22 108.943 1012.66 110.811L1015.88 124.561C1016.93 129.075 1016.56 133.806 1014.81 138.1C1012.99 142.579 1012.66 147.529 1013.89 152.208L1015.43 158.103C1016.78 163.234 1016.45 168.66 1014.51 173.596L992.5 229.5L984.697 246.841C983.908 248.594 983.5 250.494 983.5 252.416C983.5 256.574 981.596 260.503 978.332 263.08L974 266.5L956.602 279.342C954.337 281.013 953 283.661 953 286.476C953 289.033 951.896 291.466 949.972 293.15L940.251 301.655C938.185 303.463 937 306.075 937 308.82C937 312.05 935.363 315.059 932.651 316.814L923.191 322.935C921.076 324.304 919.18 325.984 917.567 327.92L915 331L910.402 336.659C909.139 338.214 907.693 339.612 906.096 340.821L896.358 348.198C893.487 350.374 891.119 353.144 889.418 356.32L887.463 359.969C885.518 363.6 884.5 367.655 884.5 371.775V377.225C884.5 381.345 885.518 385.4 887.463 389.031L892 397.5L898 410.5L907.062 428.623C907.722 429.945 906.761 431.5 905.284 431.5C904.077 431.5 903.148 432.567 903.315 433.762L908.5 471L914.427 519.332C914.806 522.417 915.757 525.398 917.215 528.143C923.36 539.714 932.5 557.522 932.5 560C932.5 562.252 937.026 567.025 940.62 570.369C942.173 571.815 943.613 573.382 944.826 575.124L959 595.5L988.94 633.271C990.635 635.409 991.969 637.811 992.888 640.38L1012.85 696.18C1013.28 697.391 1013.62 698.635 1013.86 699.899L1018 721.5L1024.02 787.732C1024.34 791.206 1023.92 794.707 1022.8 798.01L1017.18 814.624C1014.98 821.125 1008.88 825.5 1002.02 825.5C995.633 825.5 989.859 821.706 987.325 815.846L984.311 808.876C983.771 807.628 983.334 806.337 983.004 805.017L965.203 733.81C964.736 731.943 964.055 730.136 963.173 728.425L952.365 707.444C949.256 701.409 943.827 696.898 937.324 694.947L932.5 693.5L916.705 688.987C915.57 688.663 914.459 688.258 913.381 687.777L887 676L790.869 635.01C789.338 634.357 787.627 634.257 786.029 634.727C782.578 635.742 780.411 639.155 780.962 642.71L784.932 668.337C785.281 670.586 784.343 672.842 782.502 674.18C780.93 675.324 780 677.15 780 679.094V701.054C780 707.141 777.779 713.019 773.754 717.586L722.493 775.739C721.169 777.241 719.67 778.578 718.026 779.723L692.5 797.5L680.579 803.971C676.918 805.959 672.818 807 668.652 807H663H642.172C640.396 807 638.625 806.811 636.888 806.435L623.703 803.584C621.918 803.199 620.227 802.467 618.724 801.43C612.097 796.86 610.694 787.649 615.66 781.313L616.446 780.311C619.321 776.643 623.722 774.5 628.383 774.5H636.251C643.113 774.5 649.674 771.679 654.395 766.699L685.644 733.733C690.046 729.089 692.5 722.933 692.5 716.534V710.722C692.5 706.785 690.726 703.059 687.671 700.577C685.606 698.899 684.103 696.631 683.361 694.076L680.656 684.759C680.22 683.256 679.643 681.798 678.934 680.403L650.67 624.787C649.592 622.664 647.796 620.993 645.602 620.069C641.899 618.51 637.622 619.302 634.724 622.085L632.877 623.858C629.245 627.344 624.019 628.606 619.197 627.159L590.514 618.554C588.184 617.855 585.764 617.5 583.331 617.5H543H505.29C494.16 617.5 484.37 624.858 481.275 635.549L481 636.5L463.5 719L443.655 780.47C443.219 781.821 442.669 783.132 442.01 784.39L439.051 790.039C438.022 792.004 436.735 793.824 435.225 795.45L431.918 799.011C427.188 804.105 420.55 807 413.598 807H398H378.895C375.474 807 372.228 805.49 370.025 802.873C367.243 799.57 366.527 794.996 368.166 791.001L370.228 785.976C372.321 780.874 376.376 776.826 381.482 774.742L387.911 772.118C394.345 769.492 399.395 764.307 401.851 757.807L404.887 749.77C405.953 746.947 406.5 743.953 406.5 740.935V730.394C406.5 727.814 406.1 725.249 405.316 722.79L383.269 653.738C381.182 647.202 376.501 641.811 370.322 638.828L365.5 636.5L358.024 632.314C354.73 630.469 351.017 629.5 347.241 629.5C342.23 629.5 337.368 631.206 333.455 634.336L322 643.5L190.381 744.063C189.13 745.019 187.791 745.854 186.383 746.558L182.648 748.426C179.26 750.12 176.302 752.561 173.996 755.566L164.158 768.385C162.075 771.1 159.457 773.357 156.466 775.019L147.703 779.887C144.603 781.609 141.172 782.652 137.638 782.947L119.078 784.493C115.092 784.826 111.087 784.136 107.441 782.49L103.582 780.747C99.7245 779.005 96.8294 775.653 95.6667 771.583C94.3169 766.859 95.4702 761.773 98.7256 758.093L100.819 755.727C103.541 752.649 107.139 750.477 111.13 749.501L121.247 747.029C125.349 746.026 129.13 744.001 132.237 741.142L138.272 735.59C139.422 734.532 140.469 733.369 141.402 732.117L172 691L200.882 647.447C202.612 644.839 203.837 641.929 204.492 638.869L213.815 595.365C214.911 590.251 214.375 584.922 212.283 580.128L205.851 565.389C204.305 561.845 201.957 558.708 198.993 556.224L170.285 532.171C167.786 530.077 164.901 528.492 161.794 527.506L135 519L101.023 505.491C96.1328 503.547 90.7534 503.195 85.6514 504.487L64.3793 509.872C57.7509 511.55 50.7245 510.44 44.9362 506.801L16.0949 488.666C2.02281 479.817 0.344604 459.955 12.7326 448.871L20.8083 441.645C24.2047 438.606 26.7058 434.697 28.0412 430.339L33.7882 411.586C34.9142 407.911 36.8722 404.546 39.51 401.751L71.7513 367.591C75.2666 363.866 76.3416 358.459 74.5184 353.673L72.6206 348.692C70.9252 344.241 73.313 339.28 77.8487 337.828C80.448 336.997 82.4726 334.941 83.264 332.329Z"/>
</mask>
<path d="M83.264 332.329L83.5095 331.519C85.3184 325.549 92.1245 322.713 97.6372 325.631L104 329L142.299 349.062C144.75 350.345 147.396 351.213 150.13 351.63L175.5 355.5L232 365.5L279.755 369.173C282.565 369.39 285.391 369.129 288.114 368.403L299 365.5L333 355.5L361.685 351.268C362.893 351.089 364.113 351 365.334 351H401.558C403.182 351 404.803 350.842 406.396 350.527L477.5 336.5L577.124 321.286C578.373 321.096 579.634 321 580.898 321H616L762.557 314.228C765.821 314.078 769.082 314.568 772.157 315.672L776.477 317.223C783.173 319.626 790.575 319.063 796.831 315.675L854.72 284.318C857.547 282.787 860.052 280.725 862.097 278.245L892 242L934.775 182.59C936.25 180.542 937.406 178.282 938.204 175.888L951.717 135.349C952.567 132.8 953 130.13 953 127.443V109.969C953 104.785 951.388 99.7288 948.388 95.5008L934.428 75.8304C932.174 72.6541 929.209 70.0484 925.769 68.2211L916.843 63.4792C915.617 62.8275 914.338 62.2792 913.02 61.84L909.076 60.5254C905.09 59.1966 900.833 58.8941 896.698 59.6457L864.459 65.5075C860.864 66.1611 857.169 66.0118 853.639 65.0704L850.679 64.281C846.393 63.1382 842.716 60.3817 840.417 56.5887C836.585 50.2656 837.23 42.1995 842.019 36.566L848.048 29.4733C850 27.1767 852.351 25.252 854.988 23.7922L877.378 11.398C878.379 10.8439 879 9.78995 879 8.64579C879 6.90842 880.408 5.5 882.146 5.5H904.966C907.229 5.5 909.399 4.60116 910.999 3.0012C913.424 0.576193 917.065 -0.161029 920.242 1.12975L927.395 4.03555C929.776 5.00271 932.322 5.5 934.892 5.5C939.487 5.5 943.943 7.08992 947.5 10L950.04 12.0786C951.954 13.6445 954.351 14.5 956.824 14.5C960.646 14.5 964.179 16.5369 966.094 19.845L971.479 29.1464C973.039 31.8409 975.917 33.5 979.031 33.5C981.837 33.5 984.472 34.8497 986.112 37.1271L992.5 46L1008.26 71.453C1010.7 75.4059 1012 79.9629 1012 84.6119V105.113C1012 107.031 1012.22 108.943 1012.66 110.811L1015.88 124.561C1016.93 129.075 1016.56 133.806 1014.81 138.1C1012.99 142.579 1012.66 147.529 1013.89 152.208L1015.43 158.103C1016.78 163.234 1016.45 168.66 1014.51 173.596L992.5 229.5L984.697 246.841C983.908 248.594 983.5 250.494 983.5 252.416C983.5 256.574 981.596 260.503 978.332 263.08L974 266.5L956.602 279.342C954.337 281.013 953 283.661 953 286.476C953 289.033 951.896 291.466 949.972 293.15L940.251 301.655C938.185 303.463 937 306.075 937 308.82C937 312.05 935.363 315.059 932.651 316.814L923.191 322.935C921.076 324.304 919.18 325.984 917.567 327.92L915 331L910.402 336.659C909.139 338.214 907.693 339.612 906.096 340.821L896.358 348.198C893.487 350.374 891.119 353.144 889.418 356.32L887.463 359.969C885.518 363.6 884.5 367.655 884.5 371.775V377.225C884.5 381.345 885.518 385.4 887.463 389.031L892 397.5L898 410.5L907.062 428.623C907.722 429.945 906.761 431.5 905.284 431.5C904.077 431.5 903.148 432.567 903.315 433.762L908.5 471L914.427 519.332C914.806 522.417 915.757 525.398 917.215 528.143C923.36 539.714 932.5 557.522 932.5 560C932.5 562.252 937.026 567.025 940.62 570.369C942.173 571.815 943.613 573.382 944.826 575.124L959 595.5L988.94 633.271C990.635 635.409 991.969 637.811 992.888 640.38L1012.85 696.18C1013.28 697.391 1013.62 698.635 1013.86 699.899L1018 721.5L1024.02 787.732C1024.34 791.206 1023.92 794.707 1022.8 798.01L1017.18 814.624C1014.98 821.125 1008.88 825.5 1002.02 825.5C995.633 825.5 989.859 821.706 987.325 815.846L984.311 808.876C983.771 807.628 983.334 806.337 983.004 805.017L965.203 733.81C964.736 731.943 964.055 730.136 963.173 728.425L952.365 707.444C949.256 701.409 943.827 696.898 937.324 694.947L932.5 693.5L916.705 688.987C915.57 688.663 914.459 688.258 913.381 687.777L887 676L790.869 635.01C789.338 634.357 787.627 634.257 786.029 634.727C782.578 635.742 780.411 639.155 780.962 642.71L784.932 668.337C785.281 670.586 784.343 672.842 782.502 674.18C780.93 675.324 780 677.15 780 679.094V701.054C780 707.141 777.779 713.019 773.754 717.586L722.493 775.739C721.169 777.241 719.67 778.578 718.026 779.723L692.5 797.5L680.579 803.971C676.918 805.959 672.818 807 668.652 807H663H642.172C640.396 807 638.625 806.811 636.888 806.435L623.703 803.584C621.918 803.199 620.227 802.467 618.724 801.43C612.097 796.86 610.694 787.649 615.66 781.313L616.446 780.311C619.321 776.643 623.722 774.5 628.383 774.5H636.251C643.113 774.5 649.674 771.679 654.395 766.699L685.644 733.733C690.046 729.089 692.5 722.933 692.5 716.534V710.722C692.5 706.785 690.726 703.059 687.671 700.577C685.606 698.899 684.103 696.631 683.361 694.076L680.656 684.759C680.22 683.256 679.643 681.798 678.934 680.403L650.67 624.787C649.592 622.664 647.796 620.993 645.602 620.069C641.899 618.51 637.622 619.302 634.724 622.085L632.877 623.858C629.245 627.344 624.019 628.606 619.197 627.159L590.514 618.554C588.184 617.855 585.764 617.5 583.331 617.5H543H505.29C494.16 617.5 484.37 624.858 481.275 635.549L481 636.5L463.5 719L443.655 780.47C443.219 781.821 442.669 783.132 442.01 784.39L439.051 790.039C438.022 792.004 436.735 793.824 435.225 795.45L431.918 799.011C427.188 804.105 420.55 807 413.598 807H398H378.895C375.474 807 372.228 805.49 370.025 802.873C367.243 799.57 366.527 794.996 368.166 791.001L370.228 785.976C372.321 780.874 376.376 776.826 381.482 774.742L387.911 772.118C394.345 769.492 399.395 764.307 401.851 757.807L404.887 749.77C405.953 746.947 406.5 743.953 406.5 740.935V730.394C406.5 727.814 406.1 725.249 405.316 722.79L383.269 653.738C381.182 647.202 376.501 641.811 370.322 638.828L365.5 636.5L358.024 632.314C354.73 630.469 351.017 629.5 347.241 629.5C342.23 629.5 337.368 631.206 333.455 634.336L322 643.5L190.381 744.063C189.13 745.019 187.791 745.854 186.383 746.558L182.648 748.426C179.26 750.12 176.302 752.561 173.996 755.566L164.158 768.385C162.075 771.1 159.457 773.357 156.466 775.019L147.703 779.887C144.603 781.609 141.172 782.652 137.638 782.947L119.078 784.493C115.092 784.826 111.087 784.136 107.441 782.49L103.582 780.747C99.7245 779.005 96.8294 775.653 95.6667 771.583C94.3169 766.859 95.4702 761.773 98.7256 758.093L100.819 755.727C103.541 752.649 107.139 750.477 111.13 749.501L121.247 747.029C125.349 746.026 129.13 744.001 132.237 741.142L138.272 735.59C139.422 734.532 140.469 733.369 141.402 732.117L172 691L200.882 647.447C202.612 644.839 203.837 641.929 204.492 638.869L213.815 595.365C214.911 590.251 214.375 584.922 212.283 580.128L205.851 565.389C204.305 561.845 201.957 558.708 198.993 556.224L170.285 532.171C167.786 530.077 164.901 528.492 161.794 527.506L135 519L101.023 505.491C96.1328 503.547 90.7534 503.195 85.6514 504.487L64.3793 509.872C57.7509 511.55 50.7245 510.44 44.9362 506.801L16.0949 488.666C2.02281 479.817 0.344604 459.955 12.7326 448.871L20.8083 441.645C24.2047 438.606 26.7058 434.697 28.0412 430.339L33.7882 411.586C34.9142 407.911 36.8722 404.546 39.51 401.751L71.7513 367.591C75.2666 363.866 76.3416 358.459 74.5184 353.673L72.6206 348.692C70.9252 344.241 73.313 339.28 77.8487 337.828C80.448 336.997 82.4726 334.941 83.264 332.329Z" fill="#231F20"/>
<path d="M83.264 332.329L83.5095 331.519C85.3184 325.549 92.1245 322.713 97.6372 325.631L104 329L142.299 349.062C144.75 350.345 147.396 351.213 150.13 351.63L175.5 355.5L232 365.5L279.755 369.173C282.565 369.39 285.391 369.129 288.114 368.403L299 365.5L333 355.5L361.685 351.268C362.893 351.089 364.113 351 365.334 351H401.558C403.182 351 404.803 350.842 406.396 350.527L477.5 336.5L577.124 321.286C578.373 321.096 579.634 321 580.898 321H616L762.557 314.228C765.821 314.078 769.082 314.568 772.157 315.672L776.477 317.223C783.173 319.626 790.575 319.063 796.831 315.675L854.72 284.318C857.547 282.787 860.052 280.725 862.097 278.245L892 242L934.775 182.59C936.25 180.542 937.406 178.282 938.204 175.888L951.717 135.349C952.567 132.8 953 130.13 953 127.443V109.969C953 104.785 951.388 99.7288 948.388 95.5008L934.428 75.8304C932.174 72.6541 929.209 70.0484 925.769 68.2211L916.843 63.4792C915.617 62.8275 914.338 62.2792 913.02 61.84L909.076 60.5254C905.09 59.1966 900.833 58.8941 896.698 59.6457L864.459 65.5075C860.864 66.1611 857.169 66.0118 853.639 65.0704L850.679 64.281C846.393 63.1382 842.716 60.3817 840.417 56.5887C836.585 50.2656 837.23 42.1995 842.019 36.566L848.048 29.4733C850 27.1767 852.351 25.252 854.988 23.7922L877.378 11.398C878.379 10.8439 879 9.78995 879 8.64579C879 6.90842 880.408 5.5 882.146 5.5H904.966C907.229 5.5 909.399 4.60116 910.999 3.0012C913.424 0.576193 917.065 -0.161029 920.242 1.12975L927.395 4.03555C929.776 5.00271 932.322 5.5 934.892 5.5C939.487 5.5 943.943 7.08992 947.5 10L950.04 12.0786C951.954 13.6445 954.351 14.5 956.824 14.5C960.646 14.5 964.179 16.5369 966.094 19.845L971.479 29.1464C973.039 31.8409 975.917 33.5 979.031 33.5C981.837 33.5 984.472 34.8497 986.112 37.1271L992.5 46L1008.26 71.453C1010.7 75.4059 1012 79.9629 1012 84.6119V105.113C1012 107.031 1012.22 108.943 1012.66 110.811L1015.88 124.561C1016.93 129.075 1016.56 133.806 1014.81 138.1C1012.99 142.579 1012.66 147.529 1013.89 152.208L1015.43 158.103C1016.78 163.234 1016.45 168.66 1014.51 173.596L992.5 229.5L984.697 246.841C983.908 248.594 983.5 250.494 983.5 252.416C983.5 256.574 981.596 260.503 978.332 263.08L974 266.5L956.602 279.342C954.337 281.013 953 283.661 953 286.476C953 289.033 951.896 291.466 949.972 293.15L940.251 301.655C938.185 303.463 937 306.075 937 308.82C937 312.05 935.363 315.059 932.651 316.814L923.191 322.935C921.076 324.304 919.18 325.984 917.567 327.92L915 331L910.402 336.659C909.139 338.214 907.693 339.612 906.096 340.821L896.358 348.198C893.487 350.374 891.119 353.144 889.418 356.32L887.463 359.969C885.518 363.6 884.5 367.655 884.5 371.775V377.225C884.5 381.345 885.518 385.4 887.463 389.031L892 397.5L898 410.5L907.062 428.623C907.722 429.945 906.761 431.5 905.284 431.5C904.077 431.5 903.148 432.567 903.315 433.762L908.5 471L914.427 519.332C914.806 522.417 915.757 525.398 917.215 528.143C923.36 539.714 932.5 557.522 932.5 560C932.5 562.252 937.026 567.025 940.62 570.369C942.173 571.815 943.613 573.382 944.826 575.124L959 595.5L988.94 633.271C990.635 635.409 991.969 637.811 992.888 640.38L1012.85 696.18C1013.28 697.391 1013.62 698.635 1013.86 699.899L1018 721.5L1024.02 787.732C1024.34 791.206 1023.92 794.707 1022.8 798.01L1017.18 814.624C1014.98 821.125 1008.88 825.5 1002.02 825.5C995.633 825.5 989.859 821.706 987.325 815.846L984.311 808.876C983.771 807.628 983.334 806.337 983.004 805.017L965.203 733.81C964.736 731.943 964.055 730.136 963.173 728.425L952.365 707.444C949.256 701.409 943.827 696.898 937.324 694.947L932.5 693.5L916.705 688.987C915.57 688.663 914.459 688.258 913.381 687.777L887 676L790.869 635.01C789.338 634.357 787.627 634.257 786.029 634.727C782.578 635.742 780.411 639.155 780.962 642.71L784.932 668.337C785.281 670.586 784.343 672.842 782.502 674.18C780.93 675.324 780 677.15 780 679.094V701.054C780 707.141 777.779 713.019 773.754 717.586L722.493 775.739C721.169 777.241 719.67 778.578 718.026 779.723L692.5 797.5L680.579 803.971C676.918 805.959 672.818 807 668.652 807H663H642.172C640.396 807 638.625 806.811 636.888 806.435L623.703 803.584C621.918 803.199 620.227 802.467 618.724 801.43C612.097 796.86 610.694 787.649 615.66 781.313L616.446 780.311C619.321 776.643 623.722 774.5 628.383 774.5H636.251C643.113 774.5 649.674 771.679 654.395 766.699L685.644 733.733C690.046 729.089 692.5 722.933 692.5 716.534V710.722C692.5 706.785 690.726 703.059 687.671 700.577C685.606 698.899 684.103 696.631 683.361 694.076L680.656 684.759C680.22 683.256 679.643 681.798 678.934 680.403L650.67 624.787C649.592 622.664 647.796 620.993 645.602 620.069C641.899 618.51 637.622 619.302 634.724 622.085L632.877 623.858C629.245 627.344 624.019 628.606 619.197 627.159L590.514 618.554C588.184 617.855 585.764 617.5 583.331 617.5H543H505.29C494.16 617.5 484.37 624.858 481.275 635.549L481 636.5L463.5 719L443.655 780.47C443.219 781.821 442.669 783.132 442.01 784.39L439.051 790.039C438.022 792.004 436.735 793.824 435.225 795.45L431.918 799.011C427.188 804.105 420.55 807 413.598 807H398H378.895C375.474 807 372.228 805.49 370.025 802.873C367.243 799.57 366.527 794.996 368.166 791.001L370.228 785.976C372.321 780.874 376.376 776.826 381.482 774.742L387.911 772.118C394.345 769.492 399.395 764.307 401.851 757.807L404.887 749.77C405.953 746.947 406.5 743.953 406.5 740.935V730.394C406.5 727.814 406.1 725.249 405.316 722.79L383.269 653.738C381.182 647.202 376.501 641.811 370.322 638.828L365.5 636.5L358.024 632.314C354.73 630.469 351.017 629.5 347.241 629.5C342.23 629.5 337.368 631.206 333.455 634.336L322 643.5L190.381 744.063C189.13 745.019 187.791 745.854 186.383 746.558L182.648 748.426C179.26 750.12 176.302 752.561 173.996 755.566L164.158 768.385C162.075 771.1 159.457 773.357 156.466 775.019L147.703 779.887C144.603 781.609 141.172 782.652 137.638 782.947L119.078 784.493C115.092 784.826 111.087 784.136 107.441 782.49L103.582 780.747C99.7245 779.005 96.8294 775.653 95.6667 771.583C94.3169 766.859 95.4702 761.773 98.7256 758.093L100.819 755.727C103.541 752.649 107.139 750.477 111.13 749.501L121.247 747.029C125.349 746.026 129.13 744.001 132.237 741.142L138.272 735.59C139.422 734.532 140.469 733.369 141.402 732.117L172 691L200.882 647.447C202.612 644.839 203.837 641.929 204.492 638.869L213.815 595.365C214.911 590.251 214.375 584.922 212.283 580.128L205.851 565.389C204.305 561.845 201.957 558.708 198.993 556.224L170.285 532.171C167.786 530.077 164.901 528.492 161.794 527.506L135 519L101.023 505.491C96.1328 503.547 90.7534 503.195 85.6514 504.487L64.3793 509.872C57.7509 511.55 50.7245 510.44 44.9362 506.801L16.0949 488.666C2.02281 479.817 0.344604 459.955 12.7326 448.871L20.8083 441.645C24.2047 438.606 26.7058 434.697 28.0412 430.339L33.7882 411.586C34.9142 407.911 36.8722 404.546 39.51 401.751L71.7513 367.591C75.2666 363.866 76.3416 358.459 74.5184 353.673L72.6206 348.692C70.9252 344.241 73.313 339.28 77.8487 337.828C80.448 336.997 82.4726 334.941 83.264 332.329Z" stroke="#231F20" stroke-width="6" mask="url(#path-1-inside-1_0_5)"/>
</g>
<defs>
<filter id="filter0_d_0_5" x="0.401367" y="0.502197" width="1027.72" height="832.998" filterUnits="userSpaceOnUse" color-interpolation-filters="sRGB">
<feFlood flood-opacity="0" result="BackgroundImageFix"/>
<feColorMatrix in="SourceAlpha" type="matrix" values="0 0 0 0 0 0 0 0 0 0 0 0 0 0 0 0 0 0 127 0" result="hardAlpha"/>
<feOffset dy="4"/>
<feGaussianBlur stdDeviation="2"/>
<feComposite in2="hardAlpha" operator="out"/>
<feColorMatrix type="matrix" values="0 0 0 0 0 0 0 0 0 0 0 0 0 0 0 0 0 0 0.25 0"/>
<feBlend mode="normal" in2="BackgroundImageFix" result="effect1_dropShadow_0_5"/>
<feBlend mode="normal" in="SourceGraphic" in2="effect1_dropShadow_0_5" result="shape"/>
</filter>
</defs>
</svg>
