<svg width="1086" height="602" viewBox="0 0 1086 602" fill="none" xmlns="http://www.w3.org/2000/svg">
<g clip-path="url(#clip0_1_24)">
<path d="M589.473 545.889C583.358 575.764 548.503 539.043 548.503 539.043L506.922 534.063C506.922 534.063 480.628 534.686 463.507 548.379C446.385 562.071 434.767 544.022 434.767 544.022C415.477 550.567 391.844 550.54 371.377 548.444C341.884 545.424 318.244 522.253 314.19 492.365C291.325 323.767 417.034 240.913 417.034 240.913L453.723 140.084C453.723 140.084 442.105 110.831 438.436 84.6899C434.767 58.5491 461.672 33.653 494.693 8.75699C509.139 -2.13503 525.692 -1.35216 539.744 2.97486C555.506 7.82891 569.256 17.8108 579.416 31.003C587.833 41.9323 602.27 57.4111 618.14 60.0926C623.631 61.0138 629.048 63.2295 634.112 67.2627C639.346 71.4327 641.657 78.3912 641.731 87.0426C642.122 124.835 611.462 170.332 584.581 177.428C551.561 186.141 569.294 268.921 569.294 268.921C623.105 346.098 585.193 431.99 585.193 431.99L594.976 501.699C594.976 501.699 595.588 516.014 589.473 545.889Z" fill="#231F20"/>
<path d="M409.696 385.31L423.149 555.847C423.149 555.847 404.804 603.15 467.176 600.66C529.547 598.171 492.858 501.076 492.858 501.076L473.291 374.106" fill="#231F20"/>
<path d="M462.535 602C464.06 602 465.621 601.968 467.223 601.904C481.031 601.353 491.198 596.177 497.444 586.52C515.303 558.908 495.44 504.48 494.046 500.754L474.499 373.913C474.394 373.234 473.773 372.777 473.101 372.876C472.434 372.983 471.978 373.62 472.082 374.3L491.649 501.27C491.664 501.356 491.685 501.441 491.716 501.524C491.93 502.086 512.815 558.231 495.4 585.154C489.612 594.1 480.1 598.899 467.128 599.417C446.763 600.225 433.065 595.803 426.406 586.261C417.693 573.778 424.22 556.477 424.287 556.303C424.355 556.127 424.382 555.936 424.368 555.748L410.915 385.21C410.862 384.526 410.284 384.026 409.598 384.068C408.924 384.124 408.423 384.724 408.477 385.409L421.908 555.668C421.019 558.109 415.448 574.843 424.401 587.688C431.026 597.193 443.845 602 462.535 602Z" fill="black"/>
<path d="M520.986 420.164C520.986 420.164 517.318 578.254 594.365 574.52C671.412 570.785 601.703 520.993 601.703 520.993L594.976 501.699" fill="#231F20"/>
<path d="M591.721 575.829C592.615 575.829 593.515 575.807 594.423 575.763C616.423 574.697 628.852 569.68 631.367 560.852C635.897 544.945 606.37 522.859 602.726 520.205L596.129 501.283C595.903 500.634 595.204 500.296 594.568 500.526C593.931 500.755 593.598 501.466 593.824 502.114L600.55 521.409C600.635 521.653 600.793 521.863 601 522.012C601.323 522.243 633.259 545.27 629.017 560.159C626.825 567.853 615.147 572.266 594.306 573.276C580.427 573.955 568.261 569.205 558.167 559.173C520.313 521.561 522.186 421.202 522.209 420.193C522.225 419.506 521.691 418.936 521.015 418.919C520.376 418.921 519.78 419.448 519.764 420.135C519.667 424.3 517.841 522.579 556.456 560.953C566.397 570.831 578.25 575.829 591.721 575.829Z" fill="black"/>
<path d="M641.731 87.0426C632.95 88.1131 619.203 88.0633 607.818 80.3331C595.625 72.0551 608.282 64.3373 618.139 60.0926C623.631 61.0137 629.048 63.2295 634.111 67.2627C639.346 71.4327 641.657 78.3912 641.731 87.0426Z" fill="#14B8A6"/>
<path d="M499.831 64.6599C499.831 64.6599 521.171 8.87232 490.607 8.09169C460.042 7.31106 435.9 55.6555 435.9 55.6555C435.9 55.6555 359.185 197.989 464.29 190.314C569.394 182.638 519.169 125.82 519.169 125.82C519.169 125.82 495.197 95.8208 499.831 64.6599Z" fill="#151515"/>
<path d="M511.668 56.5775C511.668 56.5775 533.008 0.789981 502.443 0.00935297C471.879 -0.771275 447.737 47.5732 447.737 47.5732C447.737 47.5732 371.022 189.907 476.127 182.231C581.231 174.556 531.006 117.737 531.006 117.737C531.006 117.737 507.034 87.7384 511.668 56.5775Z" fill="#231F20"/>
<path d="M382.743 481.553C369.208 487.681 355.065 493.936 340.263 493.338C325.46 492.739 309.882 483.036 307.575 468.141C306.385 460.452 308.746 452.203 305.854 444.997C301.962 435.301 289.409 431.562 279.651 434.885C269.892 438.207 262.724 446.775 257.584 455.848C247.967 472.823 244.114 495.102 254.425 511.65C263.363 525.995 280.316 532.477 296.086 538.036C317.091 545.442 340.542 552.792 360.896 543.696C381.366 534.547 392.517 508.114 384.936 486.706" fill="#231F20"/>
<path d="M427.901 212.763C427.901 212.763 400.995 226.456 414.448 241.394C427.901 256.331 511.063 298.655 541.637 292.431C572.212 286.207 579.55 267.535 579.55 262.555C579.55 257.576 577.243 197.344 567.459 199.834C557.676 202.324 496.387 258.821 427.901 212.763Z" fill="#14B8A6"/>
</g>
<defs>
<clipPath id="clip0_1_24">
<rect width="1086" height="602" fill="white" transform="matrix(-1 0 0 1 1086 0)"/>
</clipPath>
</defs>
</svg>
