<svg width="707" height="692" viewBox="0 0 707 692" fill="none" xmlns="http://www.w3.org/2000/svg">
<rect width="707" height="692" rx="346" fill="#2F343D"/>
<path d="M332.825 518.345L556.222 386.103L332.825 600.684L192.355 466.779H284.591L332.825 518.345Z" fill="#36B49A"/>
<path d="M150.637 498.004C130.328 418.16 232.719 313.364 273.336 306.711C257.693 247.659 182.793 325.008 166.715 244.332C144.713 225.203 148.38 200.529 152.329 187.776H231.026C247.775 160.836 265.96 147.546 297.03 139.537C318.127 134.099 352.88 139.537 352.88 139.537L390.113 73C442.577 94.6245 417.98 183.618 609.222 331.662C615.315 351.623 584.118 412.061 567.758 439.785C551.398 467.508 326.647 671 326.647 671L150.637 498.004Z" fill="#36B49A"/>
<path d="M338.494 439.784C380.964 452.215 472.16 439.784 445.116 387.767C393.543 364.389 406.19 309.683 338.494 313.841L324.989 266.453C324.989 266.453 313.954 300.057 273.336 306.711M273.336 306.711C232.719 313.364 130.328 418.16 150.637 498.004L326.647 671C326.647 671 551.398 467.508 567.758 439.785C584.118 412.061 615.315 351.623 609.222 331.662C417.98 183.618 442.577 94.6245 390.113 73L352.88 139.537C352.88 139.537 318.127 134.099 297.03 139.537C265.96 147.546 247.775 160.836 231.026 187.776H152.329C148.38 200.529 144.713 225.203 166.715 244.332C182.793 325.008 257.693 247.659 273.336 306.711Z" stroke="#2F343D" stroke-width="30"/>
<path d="M331.673 535.648L509.273 431L331.673 600.806L220 494.842H293.327L331.673 535.648Z" fill="#2F343D"/>
</svg>
