<svg width="550" height="601" viewBox="0 0 550 601" fill="none" xmlns="http://www.w3.org/2000/svg">
<path d="M348.881 340.987L111.136 403.162C103.072 405.261 94.5165 404.026 87.3476 399.727C80.1787 395.428 74.9816 388.417 72.8963 380.232L0.995983 96.6776C-1.07103 88.4876 0.145291 79.7994 4.37811 72.519C8.61094 65.2386 15.5146 59.9606 23.5745 57.8429L244.757 0L301.37 25.7377L371.46 302.153C373.527 310.343 372.311 319.031 368.078 326.311C363.845 333.592 356.941 338.87 348.881 340.987Z" fill="#F2F2F2"/>
<path d="M25.8284 66.7333C20.0888 68.2413 15.1726 71.9999 12.1583 77.1844C9.14398 82.369 8.27781 88.556 9.74979 94.3883L81.6501 377.943C83.135 383.772 86.8361 388.764 91.9412 391.826C97.0463 394.887 103.139 395.766 108.882 394.271L346.627 332.097C352.366 330.589 357.283 326.831 360.297 321.646C363.311 316.462 364.177 310.275 362.705 304.442L293.701 32.3101L243.949 9.69116L25.8284 66.7333Z" fill="white"/>
<path d="M300.765 27.2005L263.971 36.8228C261.285 37.5252 258.434 37.1153 256.046 35.6831C253.657 34.2509 251.927 31.9139 251.235 29.186L244.237 1.58764C244.207 1.46681 244.21 1.33966 244.247 1.22077C244.285 1.10188 244.354 0.996068 244.448 0.915456C244.542 0.834845 244.656 0.782701 244.777 0.765009C244.899 0.747317 245.023 0.764788 245.135 0.815424L300.868 25.951C300.992 26.0069 301.096 26.1007 301.165 26.2192C301.234 26.3378 301.265 26.4753 301.254 26.6126C301.243 26.75 301.19 26.8804 301.102 26.9857C301.014 27.0911 300.897 27.1661 300.765 27.2005Z" fill="#F2F2F2"/>
<path d="M281.408 269.35L173.166 297.657C172.501 297.831 171.809 297.87 171.129 297.772C170.449 297.675 169.795 297.442 169.203 297.087C168.612 296.733 168.095 296.263 167.683 295.706C167.27 295.148 166.969 294.514 166.798 293.839C166.627 293.163 166.588 292.46 166.685 291.77C166.781 291.079 167.01 290.415 167.359 289.814C167.708 289.214 168.171 288.689 168.719 288.27C169.268 287.851 169.893 287.545 170.558 287.372L278.8 259.064C279.465 258.891 280.157 258.851 280.837 258.949C281.517 259.047 282.171 259.28 282.763 259.634C283.354 259.989 283.871 260.458 284.284 261.016C284.696 261.573 284.997 262.208 285.168 262.883C285.339 263.558 285.378 264.261 285.282 264.952C285.185 265.642 284.956 266.307 284.607 266.907C284.258 267.508 283.796 268.033 283.247 268.452C282.698 268.871 282.073 269.176 281.408 269.35Z" fill="#CCCCCC"/>
<path d="M306.698 281.244L177.567 315.014C176.224 315.365 174.799 315.16 173.605 314.444C172.41 313.728 171.545 312.559 171.199 311.195C170.853 309.831 171.055 308.384 171.76 307.171C172.466 305.958 173.616 305.079 174.959 304.728L304.09 270.958C305.433 270.609 306.857 270.814 308.05 271.531C309.243 272.247 310.108 273.415 310.453 274.778C310.799 276.141 310.598 277.588 309.894 278.8C309.189 280.013 308.04 280.892 306.698 281.244Z" fill="#CCCCCC"/>
<path d="M128.988 331.75C139.195 331.75 147.47 323.346 147.47 312.98C147.47 302.614 139.195 294.211 128.988 294.211C118.781 294.211 110.506 302.614 110.506 312.98C110.506 323.346 118.781 331.75 128.988 331.75Z" fill="#E6E6E6"/>
<path d="M269.899 220.228L126.143 257.809C121.988 258.89 117.581 258.253 113.888 256.039C110.195 253.824 107.518 250.212 106.444 245.995L76.3185 127.143C75.254 122.923 75.881 118.448 78.0619 114.697C80.2427 110.947 83.7994 108.229 87.9516 107.138L231.708 69.5574C235.862 68.4764 240.27 69.1131 243.962 71.3279C247.655 73.5427 250.332 77.1547 251.406 81.3714L281.532 200.224C282.596 204.443 281.97 208.919 279.789 212.669C277.608 216.419 274.051 219.138 269.899 220.228Z" fill="white"/>
<path d="M269.899 220.228L126.143 257.809C121.988 258.89 117.581 258.253 113.888 256.039C110.195 253.824 107.518 250.212 106.444 245.995L76.3185 127.143C75.254 122.923 75.881 118.448 78.0619 114.697C80.2427 110.947 83.7994 108.229 87.9516 107.138L231.708 69.5574C235.862 68.4764 240.27 69.1131 243.962 71.3279C247.655 73.5427 250.332 77.1547 251.406 81.3714L281.532 200.224C282.596 204.443 281.97 208.919 279.789 212.669C277.608 216.419 274.051 219.138 269.899 220.228ZM88.4261 109.01C84.7624 109.972 81.6241 112.371 79.6998 115.68C77.7755 118.989 77.2223 122.938 78.1615 126.661L108.287 245.513C109.235 249.234 111.597 252.421 114.855 254.375C118.114 256.329 122.003 256.891 125.668 255.937L269.425 218.357C273.088 217.395 276.226 214.996 278.151 211.687C280.075 208.378 280.628 204.428 279.689 200.706L249.563 81.8532C248.616 78.1326 246.253 74.9455 242.995 72.9913C239.737 71.0371 235.848 70.4753 232.182 71.4291L88.4261 109.01Z" fill="#E6E6E6"/>
<path d="M224.415 109.52L151.863 128.487C151.229 128.666 150.551 128.595 149.966 128.287C149.382 127.978 148.935 127.456 148.715 126.826C148.612 126.497 148.577 126.15 148.611 125.806C148.645 125.462 148.748 125.129 148.913 124.827C149.078 124.526 149.302 124.261 149.571 124.05C149.84 123.838 150.148 123.685 150.478 123.599L224.331 104.292C227.314 105.827 226.53 108.967 224.415 109.52Z" fill="#F2F2F2"/>
<path d="M227.691 122.444L155.139 141.411C154.504 141.591 153.827 141.519 153.242 141.211C152.658 140.903 152.21 140.38 151.991 139.75C151.888 139.421 151.853 139.074 151.887 138.73C151.921 138.386 152.024 138.054 152.189 137.752C152.354 137.45 152.578 137.185 152.847 136.974C153.116 136.763 153.424 136.609 153.754 136.523L227.607 117.216C230.59 118.752 229.806 121.891 227.691 122.444Z" fill="#F2F2F2"/>
<path d="M141.32 152.869L119.178 158.658C118.455 158.846 117.688 158.735 117.045 158.35C116.402 157.964 115.936 157.335 115.749 156.601L109.023 130.066C108.838 129.331 108.947 128.552 109.326 127.899C109.706 127.246 110.325 126.773 111.048 126.584L133.19 120.795C133.913 120.607 134.68 120.718 135.323 121.104C135.966 121.489 136.432 122.118 136.619 122.851L143.345 149.387C143.53 150.122 143.421 150.901 143.041 151.554C142.662 152.206 142.043 152.68 141.32 152.869Z" fill="#E6E6E6"/>
<path d="M234.187 148.961L123.46 177.908C122.825 178.087 122.147 178.016 121.563 177.708C120.979 177.399 120.531 176.877 120.311 176.247C120.209 175.918 120.174 175.571 120.208 175.227C120.242 174.883 120.345 174.55 120.51 174.248C120.675 173.947 120.899 173.682 121.168 173.471C121.437 173.259 121.745 173.106 122.074 173.02L234.104 143.733C237.088 145.268 236.303 148.408 234.187 148.961Z" fill="#F2F2F2"/>
<path d="M237.464 161.889L126.736 190.835C126.102 191.015 125.424 190.944 124.84 190.636C124.256 190.327 123.808 189.805 123.588 189.175C123.486 188.845 123.451 188.498 123.485 188.155C123.519 187.811 123.622 187.478 123.787 187.176C123.952 186.874 124.175 186.61 124.444 186.398C124.713 186.187 125.022 186.034 125.351 185.948L237.381 156.661C240.364 158.196 239.579 161.336 237.464 161.889Z" fill="#F2F2F2"/>
<path d="M240.739 174.809L130.011 203.755C129.377 203.935 128.699 203.863 128.115 203.555C127.53 203.247 127.083 202.724 126.863 202.094C126.761 201.765 126.725 201.418 126.76 201.074C126.794 200.731 126.896 200.398 127.061 200.096C127.226 199.794 127.45 199.529 127.719 199.318C127.988 199.107 128.297 198.953 128.626 198.867L240.656 169.58C243.639 171.116 242.854 174.255 240.739 174.809Z" fill="#F2F2F2"/>
<path d="M244.015 187.735L133.288 216.682C132.653 216.861 131.976 216.79 131.391 216.482C130.807 216.173 130.359 215.651 130.14 215.021C130.037 214.691 130.002 214.344 130.036 214.001C130.07 213.657 130.173 213.324 130.338 213.022C130.503 212.72 130.727 212.456 130.996 212.245C131.265 212.033 131.573 211.88 131.903 211.794L243.932 182.507C246.916 184.042 246.131 187.182 244.015 187.735Z" fill="#F2F2F2"/>
<path d="M247.29 200.656L136.563 229.602C135.928 229.782 135.251 229.71 134.666 229.402C134.082 229.094 133.634 228.572 133.415 227.941C133.312 227.612 133.277 227.265 133.311 226.921C133.345 226.578 133.448 226.245 133.613 225.943C133.778 225.641 134.002 225.376 134.271 225.165C134.54 224.954 134.848 224.8 135.178 224.714L247.207 195.427C250.191 196.963 249.406 200.103 247.29 200.656Z" fill="#F2F2F2"/>
<path d="M130.352 319.56C129.949 319.666 129.524 319.636 129.139 319.475L129.115 319.465L124.08 317.297C123.847 317.197 123.635 317.051 123.457 316.867C123.279 316.683 123.138 316.466 123.043 316.227C122.948 315.988 122.9 315.732 122.903 315.474C122.905 315.217 122.957 314.962 123.057 314.725C123.156 314.488 123.3 314.273 123.481 314.092C123.662 313.912 123.877 313.77 124.112 313.673C124.348 313.577 124.599 313.529 124.853 313.532C125.107 313.535 125.358 313.588 125.591 313.689L128.854 315.099L133.129 304.885C133.228 304.648 133.372 304.433 133.553 304.253C133.734 304.073 133.948 303.931 134.183 303.834C134.418 303.738 134.669 303.69 134.922 303.692C135.176 303.695 135.426 303.748 135.659 303.848L135.634 303.915L135.661 303.848C136.132 304.052 136.503 304.437 136.695 304.919C136.886 305.401 136.881 305.941 136.681 306.419L131.652 318.428C131.535 318.705 131.357 318.951 131.132 319.147C130.907 319.342 130.64 319.483 130.353 319.557L130.352 319.56Z" fill="white"/>
<path d="M440.071 449.043H194.569C186.244 449.033 178.263 445.67 172.376 439.692C166.489 433.714 163.178 425.608 163.168 417.153V124.348C163.178 115.893 166.489 107.788 172.376 101.809C178.263 95.8308 186.244 92.4679 194.569 92.4584H422.968L471.472 131.72V417.153C471.462 425.608 468.151 433.714 462.264 439.692C456.377 445.67 448.396 449.033 440.071 449.043Z" fill="#E6E6E6"/>
<path d="M194.569 101.639C188.641 101.645 182.957 104.04 178.765 108.298C174.573 112.555 172.214 118.327 172.208 124.348V417.153C172.214 423.174 174.573 428.946 178.765 433.203C182.957 437.461 188.641 439.856 194.569 439.862H440.071C445.999 439.856 451.683 437.461 455.875 433.203C460.067 428.946 462.425 423.174 462.432 417.153V136.143L419.806 101.639H194.569Z" fill="white"/>
<path d="M392.321 186.779H280.547C279.16 186.779 277.83 186.219 276.85 185.223C275.869 184.227 275.318 182.876 275.318 181.468C275.318 180.06 275.869 178.709 276.85 177.713C277.83 176.717 279.16 176.158 280.547 176.158H392.321C393.707 176.158 395.038 176.717 396.018 177.713C396.999 178.709 397.55 180.06 397.55 181.468C397.55 182.876 396.999 184.227 396.018 185.223C395.038 186.219 393.707 186.779 392.321 186.779Z" fill="#00BFA6"/>
<path d="M413.891 204.701H280.547C279.162 204.7 277.833 204.139 276.854 203.143C275.875 202.148 275.325 200.798 275.325 199.391C275.325 197.984 275.875 196.634 276.854 195.638C277.833 194.643 279.162 194.082 280.547 194.08H413.891C414.578 194.08 415.259 194.216 415.894 194.483C416.529 194.749 417.107 195.14 417.593 195.633C418.079 196.127 418.465 196.712 418.728 197.357C418.992 198.002 419.127 198.693 419.127 199.391C419.127 200.089 418.992 200.78 418.728 201.425C418.465 202.07 418.079 202.655 417.593 203.149C417.107 203.642 416.529 204.033 415.894 204.299C415.259 204.566 414.578 204.702 413.891 204.701Z" fill="#00BFA6"/>
<path d="M392.321 256.476H280.552C279.165 256.476 277.835 257.035 276.854 258.031C275.874 259.027 275.323 260.377 275.323 261.786C275.323 263.194 275.874 264.545 276.854 265.541C277.835 266.536 279.165 267.096 280.552 267.096H392.321C393.708 267.096 395.038 266.536 396.019 265.541C396.999 264.545 397.55 263.194 397.55 261.786C397.55 260.377 396.999 259.027 396.019 258.031C395.038 257.035 393.708 256.476 392.321 256.476Z" fill="#CCCCCC"/>
<path d="M413.893 274.401H280.552C279.165 274.401 277.835 274.961 276.854 275.957C275.874 276.953 275.323 278.303 275.323 279.712C275.323 281.12 275.874 282.47 276.854 283.466C277.835 284.462 279.165 285.022 280.552 285.022H413.893C415.28 285.022 416.61 284.462 417.59 283.466C418.571 282.47 419.122 281.12 419.122 279.712C419.122 278.303 418.571 276.953 417.59 275.957C416.61 274.961 415.28 274.401 413.893 274.401Z" fill="#CCCCCC"/>
<path d="M392.321 347.421H280.547C279.16 347.421 277.83 346.861 276.85 345.865C275.869 344.869 275.318 343.518 275.318 342.11C275.318 340.702 275.869 339.351 276.85 338.355C277.83 337.359 279.16 336.8 280.547 336.8H392.321C393.707 336.8 395.038 337.359 396.018 338.355C396.999 339.351 397.55 340.702 397.55 342.11C397.55 343.518 396.999 344.869 396.018 345.865C395.038 346.861 393.707 347.421 392.321 347.421Z" fill="#CCCCCC"/>
<path d="M413.891 365.344H280.547C279.162 365.342 277.833 364.781 276.854 363.786C275.875 362.79 275.325 361.44 275.325 360.033C275.325 358.626 275.875 357.276 276.854 356.281C277.833 355.285 279.162 354.725 280.547 354.723H413.891C414.578 354.722 415.259 354.858 415.894 355.125C416.529 355.391 417.107 355.782 417.593 356.276C418.079 356.769 418.465 357.354 418.728 357.999C418.992 358.644 419.127 359.335 419.127 360.033C419.127 360.731 418.992 361.422 418.728 362.067C418.465 362.712 418.079 363.298 417.593 363.791C417.107 364.284 416.529 364.675 415.894 364.941C415.259 365.208 414.578 365.345 413.891 365.344Z" fill="#CCCCCC"/>
<path d="M234.002 209.199C244.21 209.199 252.484 200.796 252.484 190.43C252.484 180.063 244.21 171.66 234.002 171.66C223.795 171.66 215.52 180.063 215.52 190.43C215.52 200.796 223.795 209.199 234.002 209.199Z" fill="#00BFA6"/>
<path d="M232.171 197.59C231.755 197.59 231.35 197.454 231.017 197.2L230.997 197.185L226.653 193.81C226.451 193.654 226.282 193.459 226.155 193.236C226.027 193.013 225.945 192.766 225.911 192.511C225.878 192.255 225.894 191.996 225.959 191.746C226.025 191.497 226.138 191.264 226.292 191.059C226.447 190.855 226.64 190.683 226.859 190.554C227.079 190.425 227.322 190.342 227.574 190.308C227.825 190.275 228.081 190.292 228.326 190.359C228.571 190.426 228.801 190.542 229.002 190.699L231.815 192.89L238.464 184.082C238.618 183.877 238.81 183.706 239.03 183.577C239.249 183.448 239.491 183.365 239.742 183.331C239.994 183.298 240.249 183.314 240.494 183.381C240.738 183.447 240.968 183.562 241.169 183.719L241.128 183.777L241.171 183.719C241.576 184.036 241.842 184.503 241.909 185.018C241.975 185.533 241.838 186.054 241.527 186.467L233.708 196.823C233.527 197.061 233.294 197.254 233.028 197.387C232.762 197.52 232.469 197.588 232.172 197.587L232.171 197.59Z" fill="white"/>
<path d="M254.384 270.749C254.385 273.214 253.908 275.655 252.979 277.933C252.051 280.211 250.69 282.28 248.974 284.024C247.258 285.768 245.221 287.151 242.978 288.095C240.736 289.038 238.332 289.524 235.905 289.525C235.746 289.528 235.587 289.522 235.429 289.505C231.795 289.411 228.269 288.23 225.293 286.11C222.316 283.991 220.021 281.027 218.695 277.59C217.369 274.152 217.071 270.394 217.837 266.785C218.604 263.176 220.402 259.877 223.005 257.301C225.609 254.724 228.903 252.985 232.475 252.3C236.047 251.616 239.739 252.016 243.088 253.451C246.437 254.887 249.296 257.293 251.305 260.37C253.314 263.447 254.385 267.057 254.384 270.749Z" fill="#CCCCCC"/>
<path d="M234.002 369.841C244.21 369.841 252.484 361.438 252.484 351.072C252.484 340.705 244.21 332.302 234.002 332.302C223.795 332.302 215.52 340.705 215.52 351.072C215.52 361.438 223.795 369.841 234.002 369.841Z" fill="#CCCCCC"/>
<path d="M470.528 132.984H432.533C429.759 132.984 427.099 131.865 425.138 129.873C423.177 127.881 422.075 125.18 422.075 122.363V93.864C422.075 93.7392 422.109 93.617 422.175 93.5113C422.24 93.4056 422.333 93.3207 422.444 93.2664C422.554 93.2121 422.678 93.1905 422.8 93.2042C422.922 93.2179 423.038 93.2662 423.134 93.3437L470.934 131.8C471.04 131.885 471.118 132.002 471.155 132.135C471.193 132.267 471.19 132.408 471.145 132.538C471.1 132.668 471.017 132.781 470.906 132.861C470.796 132.941 470.663 132.984 470.528 132.984Z" fill="#CCCCCC"/>
<path d="M254.384 270.749C254.385 273.214 253.908 275.655 252.979 277.933C252.051 280.211 250.69 282.28 248.974 284.024C247.258 285.768 245.221 287.151 242.978 288.095C240.736 289.039 238.332 289.525 235.905 289.525C235.746 289.528 235.587 289.522 235.429 289.506C233.041 283.457 232.121 276.915 232.745 270.43C233.369 263.944 235.52 257.707 239.016 252.243C243.316 252.991 247.216 255.259 250.028 258.646C252.84 262.032 254.383 266.319 254.384 270.749Z" fill="#00BFA6"/>
<path d="M275.318 261.791C275.321 260.382 275.873 259.031 276.854 258.035C277.835 257.039 279.164 256.478 280.552 256.476H308.404C310.03 259.836 311.187 263.41 311.839 267.096H280.552C279.165 267.095 277.836 266.537 276.855 265.542C275.874 264.548 275.321 263.198 275.318 261.791Z" fill="#00BFA6"/>
<path d="M312.486 274.401C312.488 277.988 312.021 281.56 311.097 285.022H280.552C279.165 285.022 277.835 284.462 276.854 283.466C275.874 282.47 275.323 281.12 275.323 279.712C275.323 278.303 275.874 276.953 276.854 275.957C277.835 274.961 279.165 274.401 280.552 274.401H312.486Z" fill="#00BFA6"/>
<path d="M381.399 339.898C380.61 341.211 379.341 342.152 377.869 342.514C376.398 342.876 374.845 342.63 373.552 341.829L306.938 300.565C306.298 300.169 305.741 299.648 305.299 299.033C304.857 298.418 304.539 297.721 304.363 296.981C304.186 296.241 304.155 295.473 304.271 294.72C304.386 293.968 304.647 293.246 305.037 292.596C305.428 291.946 305.94 291.381 306.546 290.932C307.152 290.483 307.838 290.16 308.567 289.98C309.296 289.801 310.052 289.769 310.793 289.887C311.534 290.004 312.244 290.269 312.884 290.666L379.498 331.929C380.791 332.73 381.717 334.019 382.074 335.514C382.43 337.008 382.187 338.586 381.399 339.898Z" fill="#3F3D56"/>
<path d="M314.786 298.635C310.081 306.467 303.196 312.706 295 316.564C286.804 320.422 277.666 321.726 268.74 320.309C259.815 318.893 251.504 314.82 244.858 308.607C238.212 302.394 233.529 294.318 231.402 285.402C229.275 276.486 229.799 267.129 232.908 258.516C236.017 249.902 241.572 242.418 248.869 237.011C256.166 231.603 264.879 228.514 273.905 228.135C282.931 227.756 291.865 230.103 299.577 234.881C309.908 241.297 317.311 251.612 320.162 263.564C323.013 275.516 321.08 288.129 314.786 298.635ZM246.547 256.365C243.019 262.239 241.286 269.043 241.566 275.918C241.846 282.793 244.127 289.429 248.12 294.987C252.114 300.545 257.641 304.776 264.002 307.144C270.363 309.512 277.273 309.911 283.858 308.291C290.443 306.671 296.407 303.104 300.995 298.042C305.584 292.98 308.591 286.65 309.638 279.852C310.684 273.054 309.721 266.093 306.872 259.851C304.023 253.608 299.415 248.364 293.631 244.781C285.872 239.987 276.557 238.514 267.73 240.686C258.904 242.857 251.285 248.496 246.547 256.365Z" fill="#3F3D56"/>
</svg>
