<svg width="510" height="899" viewBox="0 0 510 899" fill="none" xmlns="http://www.w3.org/2000/svg">
<path d="M315.391 724.497C315.391 724.503 315.386 724.508 315.38 724.508L178.55 720.89C144.271 719.983 120.084 687.641 111.589 654.419C107.011 636.517 97.7252 619.641 79.8106 611.013C46.56 594.988 17.0499 520.135 25.4446 469.201C25.5589 468.523 25.6731 467.845 25.8016 467.181C30.056 444.378 42.2199 426.718 65.4767 421.921C126.175 409.412 172.84 414.832 188.567 417.385C192.412 418.009 196.272 418.455 200.159 418.717C205.532 419.078 214.295 419.908 225.134 421.802C225.791 421.908 226.447 422.028 227.104 422.16C279.2 431.662 375.497 465.493 379.665 585.619C385.392 750.283 315.711 724.6 315.393 724.482C315.386 724.48 315.391 724.49 315.391 724.497V724.497Z" fill="#231F20"/>
<path d="M225.032 422.013C224.689 430.552 222.593 439.038 218.77 447.103C210.839 463.824 196.376 476.593 178.061 483.063C127.59 500.909 69.3665 486.051 35.1623 467.315C31.0741 465.076 25.5992 468.283 24.6709 472.851V472.851C24.1414 475.456 25.4449 477.126 27.9027 478.139C48.1035 486.471 109.452 494 121.806 494C142.017 494 161.473 490.903 178.775 484.776C197.588 478.122 212.437 464.997 220.581 447.827C224.349 439.897 226.474 431.584 226.957 423.199C226.985 422.714 226.649 422.284 226.171 422.196C225.796 422.127 225.42 422.063 225.045 422.002C225.038 422.001 225.032 422.006 225.032 422.013V422.013Z" fill="#14B8A6"/>
<path d="M239.988 432.885C239.987 432.886 239.985 432.885 239.985 432.884L216.485 377.847C211.076 365.178 212.405 350.743 218.234 338.261C226.956 319.583 235.224 293.518 216.116 289.209C203.576 286.376 190.879 291.009 180.302 297.416C162.82 308.006 151.685 317.359 131.661 313.26V313.26C105.25 307.854 62.84 296.892 40.0731 282.455C31.6435 277.109 23.0203 274.194 15.9232 277.225C3.94238 282.338 7.29847 304.699 12.8601 324.05C18.3834 343.267 15.9398 364.251 8.20371 382.689C-0.644621 403.779 -6.47443 432.324 13.1729 452.542C48.0707 488.466 179.378 517.543 239.99 432.887C239.991 432.886 239.989 432.884 239.988 432.885V432.885Z" fill="#231F20"/>
<path d="M329.171 656.478C347.381 662.182 366.397 667.985 386.314 667.435C406.232 666.885 427.168 657.862 430.274 644.02C431.887 636.866 428.71 629.211 432.598 622.506C437.838 613.501 454.721 610.015 467.833 613.101C480.969 616.186 490.595 624.158 497.519 632.58C510.465 648.356 515.634 669.069 501.763 684.446C489.742 697.771 467.675 709.061 446.477 714.231C418.214 721.119 385.935 722.687 358.549 714.231C331.02 705.726 316.011 681.16 326.207 661.264" fill="#231F20"/>
<path d="M127.988 398.811C127.986 398.809 127.988 398.809 127.985 398.809C127.931 398.789 116.377 394.517 105.144 396.547C99.1327 397.633 97.8346 404.698 101.349 409.695V409.695C105.65 415.812 114.641 416.025 119.228 410.119L127.99 398.835C127.996 398.828 127.995 398.817 127.988 398.811V398.811Z" fill="#14B8A6"/>
<path d="M24 496L54.5437 646.959C58.3772 665.906 49.9065 684.501 42.3633 702.299C36.6761 715.719 39.7191 729.467 76.5797 728.988C120.963 728.419 129.723 715.047 129.993 705.003C130.198 697.422 126.611 690.129 125.523 682.624L104.35 536.524" fill="#231F20"/>
<path d="M74.8909 729.987C74.8865 729.995 74.8778 730 74.8686 730C55.7216 729.998 44.1453 725.892 40.4368 717.776C38.0575 712.569 39.2456 706.4 41.9475 700.432C49.5791 683.573 57.47 665.867 54.1813 647.656L35.2567 542.858C35.1159 542.079 35.6443 541.336 36.427 541.213V541.213C37.1844 541.095 37.898 541.602 38.0342 542.357L62.343 676.961C62.4203 677.389 62.2751 677.827 61.9573 678.125V678.125C61.7025 678.363 36.5574 702.559 43.0419 716.73C46.3691 724.014 57.6532 727.576 76.6536 727.325C103.059 726.98 120.077 721.802 125.882 712.359C131.106 703.857 125.585 694.481 125.528 694.388L125.526 694.385C125.443 694.238 125.386 694.078 125.358 693.911V693.911L109.847 585.992C109.734 585.211 110.284 584.49 111.066 584.39V584.39C111.832 584.292 112.534 584.827 112.644 585.59L126.637 682.911C127.626 689.787 130.678 696.399 130.981 703.34C131.12 706.519 130.525 710.119 128.36 713.657C121.946 724.12 104.56 729.616 76.6961 729.974C76.0924 729.974 75.5026 729.974 74.913 729.974C74.9037 729.974 74.8952 729.979 74.8909 729.987V729.987Z" fill="black"/>
<path d="M117 496L147.544 646.959C151.377 665.906 142.906 684.501 135.363 702.299C129.676 715.719 132.719 729.467 169.58 728.988C213.963 728.419 222.723 715.047 222.993 705.003C223.198 697.422 219.611 690.129 218.523 682.624L197.35 536.524" fill="#231F20"/>
<path d="M167.795 729.987C167.795 729.994 167.789 730 167.781 730C148.598 729.998 137 725.883 133.284 717.749C130.425 711.501 132.7 703.867 136.567 696.85C144.304 682.811 150.41 667.192 147.261 651.474L137.967 605.077C137.81 604.296 138.327 603.54 139.112 603.402V603.402C139.87 603.268 140.597 603.765 140.748 604.52L155.228 676.813C155.316 677.251 155.171 677.704 154.844 678.009V678.009C154.589 678.248 129.398 702.498 135.894 716.7C139.228 724.001 150.547 727.584 169.568 727.319C196.036 726.974 213.099 721.784 218.901 712.294C224.135 703.746 218.589 694.401 218.532 694.309V694.309C218.438 694.16 218.377 693.993 218.352 693.819L195.928 537.782C195.816 536.999 196.366 536.276 197.15 536.176V536.176C197.917 536.079 198.62 536.614 198.73 537.379L219.633 682.832C220.621 689.706 223.669 696.317 223.98 703.255C224.123 706.447 223.53 710.065 221.355 713.621C214.929 724.107 197.511 729.615 169.596 729.973C168.991 729.973 168.399 729.973 167.808 729.973C167.801 729.973 167.795 729.979 167.795 729.987V729.987Z" fill="black"/>
</svg>
