<svg width="659" height="659" viewBox="0 0 659 659" fill="none" xmlns="http://www.w3.org/2000/svg">
<rect x="72" width="587" height="591" rx="118" fill="#5EEAD4"/>
<path d="M102 176C102 110.83 154.83 58 220 58H487C552.17 58 605 110.83 605 176V466C605 531.17 552.17 584 487 584H220C154.83 584 102 531.17 102 466V176Z" fill="#2DD4BF"/>
<path d="M102 176C102 110.83 154.83 58 220 58H487C552.17 58 605 110.83 605 176V466C605 531.17 552.17 584 487 584H220C154.83 584 102 531.17 102 466V176Z" fill="#2DD4BF"/>
<path d="M420.593 521.501L133.971 600.726C124.248 603.401 113.934 601.827 105.291 596.349C96.6485 590.872 90.3829 581.938 87.8689 571.508L1.18684 210.191C-1.30513 199.755 0.161254 188.684 5.26429 179.407C10.3673 170.13 18.6903 163.404 28.4072 160.706L295.062 87L363.314 119.796L447.813 472.016C450.305 482.452 448.839 493.523 443.736 502.8C438.633 512.077 430.31 518.803 420.593 521.501Z" fill="#F2F2F2"/>
<g filter="url(#filter0_d_505_179)">
<path d="M31.2195 171.692C24.3032 173.614 18.3792 178.404 14.747 185.011C11.1148 191.617 10.071 199.502 11.8448 206.934L98.4845 568.284C100.274 575.712 104.734 582.075 110.885 585.976C117.037 589.877 124.378 590.998 131.298 589.093L417.781 509.861C424.697 507.939 430.621 503.149 434.253 496.542C437.885 489.935 438.929 482.051 437.155 474.618L354.006 127.825L294.054 99L31.2195 171.692Z" fill="white"/>
</g>
<path d="M339.271 430.158L208.871 465.789C208.069 466.008 207.236 466.057 206.416 465.934C205.597 465.811 204.809 465.518 204.097 465.072C203.384 464.625 202.762 464.034 202.265 463.333C201.767 462.631 201.405 461.833 201.199 460.982C200.993 460.132 200.946 459.248 201.062 458.378C201.178 457.509 201.454 456.673 201.875 455.917C202.296 455.161 202.852 454.5 203.514 453.973C204.175 453.445 204.928 453.061 205.729 452.842L336.129 417.211C336.931 416.992 337.764 416.943 338.584 417.066C339.403 417.189 340.191 417.482 340.903 417.928C341.616 418.375 342.238 418.966 342.735 419.667C343.233 420.369 343.595 421.167 343.801 422.018C344.007 422.868 344.054 423.752 343.938 424.622C343.822 425.491 343.546 426.327 343.125 427.083C342.704 427.839 342.148 428.5 341.486 429.027C340.825 429.555 340.072 429.939 339.271 430.158Z" fill="#CCCCCC"/>
<path d="M369.281 445.186L213.863 487.788C212.247 488.231 210.531 487.973 209.094 487.069C207.656 486.166 206.615 484.692 206.199 482.971C205.783 481.251 206.026 479.424 206.874 477.894C207.723 476.364 209.108 475.256 210.724 474.813L366.142 432.21C367.758 431.769 369.473 432.029 370.909 432.932C372.345 433.836 373.385 435.309 373.801 437.029C374.217 438.748 373.975 440.574 373.127 442.103C372.28 443.633 370.896 444.741 369.281 445.186Z" fill="#CCCCCC"/>
<path d="M155.5 510C167.926 510 178 499.255 178 486C178 472.745 167.926 462 155.5 462C143.074 462 133 472.745 133 486C133 499.255 143.074 510 155.5 510Z" fill="#E6E6E6"/>
<path d="M325.342 367.496L151.77 415.345C146.754 416.721 141.433 415.91 136.974 413.09C132.515 410.27 129.283 405.672 127.986 400.303L91.6119 248.975C90.3267 243.603 91.0837 237.904 93.7169 233.129C96.3501 228.354 100.644 224.893 105.658 223.504L279.23 175.655C284.246 174.279 289.567 175.09 294.026 177.91C298.485 180.73 301.717 185.328 303.014 190.697L339.388 342.025C340.673 347.397 339.916 353.096 337.283 357.871C334.65 362.646 330.356 366.107 325.342 367.496Z" fill="white"/>
<path d="M325.342 367.496L151.77 415.345C146.754 416.721 141.433 415.91 136.974 413.09C132.515 410.27 129.283 405.672 127.986 400.303L91.6119 248.975C90.3267 243.603 91.0837 237.904 93.7169 233.129C96.3501 228.354 100.644 224.893 105.658 223.504L279.23 175.655C284.246 174.279 289.567 175.09 294.026 177.91C298.485 180.73 301.717 185.328 303.014 190.697L339.388 342.025C340.673 347.397 339.916 353.096 337.283 357.871C334.65 362.646 330.356 366.107 325.342 367.496ZM106.231 225.887C101.807 227.113 98.018 230.167 95.6946 234.38C93.3712 238.593 92.7032 243.622 93.8372 248.362L130.211 399.689C131.356 404.426 134.207 408.484 138.142 410.972C142.076 413.461 146.771 414.176 151.197 412.962L324.769 365.112C329.193 363.887 332.982 360.833 335.306 356.62C337.629 352.407 338.297 347.378 337.163 342.638L300.789 191.311C299.645 186.574 296.793 182.516 292.858 180.028C288.924 177.539 284.229 176.824 279.803 178.038L106.231 225.887Z" fill="#E6E6E6"/>
<path d="M270.727 226.672L182.949 250.876C182.182 251.105 181.362 251.014 180.655 250.621C179.948 250.227 179.406 249.561 179.14 248.757C179.017 248.336 178.974 247.893 179.015 247.455C179.057 247.016 179.181 246.592 179.38 246.206C179.58 245.821 179.851 245.483 180.176 245.214C180.502 244.944 180.875 244.748 181.273 244.639L270.626 220C274.235 221.959 273.286 225.966 270.727 226.672Z" fill="#F2F2F2"/>
<path d="M274.727 242.672L186.949 266.876C186.182 267.105 185.362 267.014 184.655 266.621C183.948 266.227 183.406 265.561 183.14 264.757C183.017 264.336 182.974 263.893 183.015 263.455C183.057 263.016 183.181 262.592 183.38 262.206C183.58 261.821 183.851 261.483 184.176 261.214C184.502 260.944 184.875 260.748 185.273 260.639L274.626 236C278.235 237.959 277.286 241.966 274.727 242.672Z" fill="#F2F2F2"/>
<path d="M281.745 276.712L148.916 313.875C148.155 314.106 147.342 314.014 146.641 313.619C145.94 313.223 145.403 312.552 145.139 311.743C145.016 311.32 144.974 310.875 145.015 310.434C145.056 309.992 145.179 309.565 145.377 309.177C145.575 308.79 145.844 308.45 146.166 308.179C146.489 307.908 146.859 307.711 147.254 307.6L281.646 270C285.225 271.971 284.283 276.002 281.745 276.712Z" fill="#F2F2F2"/>
<path d="M285.745 293.56L152.916 329.878C152.155 330.104 151.342 330.014 150.641 329.627C149.94 329.24 149.403 328.585 149.139 327.794C149.016 327.381 148.974 326.946 149.015 326.515C149.056 326.084 149.179 325.666 149.377 325.287C149.575 324.908 149.844 324.576 150.166 324.311C150.489 324.046 150.859 323.854 151.254 323.746L285.646 287C289.225 288.926 288.283 292.866 285.745 293.56Z" fill="#F2F2F2"/>
<path d="M289.745 309.712L156.916 346.875C156.155 347.106 155.342 347.014 154.641 346.619C153.94 346.223 153.403 345.552 153.139 344.743C153.016 344.32 152.974 343.875 153.015 343.434C153.056 342.992 153.179 342.565 153.377 342.177C153.575 341.79 153.844 341.45 154.166 341.179C154.489 340.908 154.859 340.711 155.254 340.6L289.646 303C293.225 304.971 292.283 309.002 289.745 309.712Z" fill="#F2F2F2"/>
<path d="M293.745 325.712L160.916 362.875C160.155 363.106 159.342 363.014 158.641 362.619C157.94 362.223 157.403 361.552 157.139 360.743C157.016 360.32 156.974 359.875 157.015 359.434C157.056 358.992 157.179 358.565 157.377 358.177C157.575 357.79 157.844 357.45 158.166 357.179C158.489 356.908 158.859 356.711 159.254 356.6L293.646 319C297.225 320.971 296.283 325.002 293.745 325.712Z" fill="#F2F2F2"/>
<path d="M297.745 342.712L164.916 379.875C164.155 380.106 163.342 380.014 162.641 379.619C161.94 379.223 161.403 378.552 161.139 377.743C161.016 377.32 160.974 376.875 161.015 376.434C161.056 375.992 161.179 375.565 161.377 375.177C161.575 374.79 161.844 374.45 162.166 374.179C162.489 373.908 162.859 373.711 163.254 373.6L297.646 336C301.225 337.971 300.283 342.002 297.745 342.712Z" fill="#F2F2F2"/>
<path d="M530.213 659H234.787C224.769 658.988 215.164 654.706 208.08 647.095C200.996 639.483 197.011 629.163 197 618.398V245.602C197.011 234.837 200.996 224.517 208.08 216.905C215.164 209.294 224.769 205.012 234.787 205H509.633L568 254.988V618.398C567.989 629.163 564.004 639.483 556.92 647.095C549.836 654.706 540.231 658.988 530.213 659Z" fill="#E6E6E6"/>
<g filter="url(#filter1_d_505_179)">
<path d="M233.967 216C226.818 216.009 219.963 219.06 214.907 224.485C209.852 229.911 207.008 237.266 207 244.939V618.061C207.008 625.734 209.852 633.089 214.907 638.515C219.963 643.94 226.818 646.991 233.967 647H530.033C537.182 646.991 544.037 643.94 549.093 638.515C554.148 633.089 556.992 625.734 557 618.061V259.969L505.595 216H233.967Z" fill="white"/>
</g>
<path d="M472.711 325H338.289C336.621 325 335.021 324.263 333.842 322.95C332.663 321.637 332 319.856 332 318C332 316.143 332.663 314.363 333.842 313.05C335.021 311.737 336.621 311 338.289 311H472.711C474.379 311 475.979 311.737 477.158 313.05C478.337 314.363 479 316.143 479 318C479 319.856 478.337 321.637 477.158 322.95C475.979 324.263 474.379 325 472.711 325Z" fill="#00BFA6"/>
<path d="M498.701 348H338.282C336.615 347.997 335.017 347.259 333.84 345.946C332.662 344.634 332 342.855 332 341C332 339.145 332.662 337.366 333.84 336.054C335.017 334.741 336.615 334.003 338.282 334H498.701C499.527 333.999 500.346 334.179 501.111 334.53C501.875 334.881 502.569 335.397 503.154 336.047C503.739 336.697 504.204 337.469 504.52 338.319C504.837 339.169 505 340.08 505 341C505 341.92 504.837 342.831 504.52 343.681C504.204 344.531 503.739 345.303 503.154 345.953C502.569 346.603 501.875 347.119 501.111 347.47C500.346 347.821 499.527 348.001 498.701 348Z" fill="#00BFA6"/>
<path d="M472.711 414H338.289C336.621 414 335.021 414.685 333.842 415.904C332.663 417.123 332 418.776 332 420.5C332 422.224 332.663 423.877 333.842 425.096C335.021 426.315 336.621 427 338.289 427H472.711C474.379 427 475.979 426.315 477.158 425.096C478.337 423.877 479 422.224 479 420.5C479 418.776 478.337 417.123 477.158 415.904C475.979 414.685 474.379 414 472.711 414Z" fill="#CCCCCC"/>
<path d="M498.709 437H338.291C336.622 437 335.022 437.685 333.842 438.904C332.663 440.123 332 441.776 332 443.5C332 445.224 332.663 446.877 333.842 448.096C335.022 449.315 336.622 450 338.291 450H498.709C500.378 450 501.978 449.315 503.158 448.096C504.337 446.877 505 445.224 505 443.5C505 441.776 504.337 440.123 503.158 438.904C501.978 437.685 500.378 437 498.709 437Z" fill="#CCCCCC"/>
<path d="M472.711 530H338.289C336.621 530 335.021 529.263 333.842 527.95C332.663 526.637 332 524.857 332 523C332 521.144 332.663 519.363 333.842 518.05C335.021 516.737 336.621 516 338.289 516H472.711C474.379 516 475.979 516.737 477.158 518.05C478.337 519.363 479 521.144 479 523C479 524.857 478.337 526.637 477.158 527.95C475.979 529.263 474.379 530 472.711 530Z" fill="#CCCCCC"/>
<path d="M498.701 552H338.282C336.615 551.998 335.017 551.312 333.84 550.093C332.662 548.874 332 547.222 332 545.5C332 543.778 332.662 542.126 333.84 540.907C335.017 539.688 336.615 539.002 338.282 539H498.701C499.527 538.999 500.346 539.166 501.111 539.492C501.875 539.818 502.569 540.297 503.154 540.901C503.739 541.504 504.204 542.221 504.52 543.011C504.837 543.8 505 544.646 505 545.5C505 546.354 504.837 547.2 504.52 547.989C504.204 548.779 503.739 549.496 503.154 550.099C502.569 550.703 501.875 551.182 501.111 551.508C500.346 551.834 499.527 552.001 498.701 552Z" fill="#CCCCCC"/>
<path d="M282 353C294.15 353 304 342.479 304 329.5C304 316.521 294.15 306 282 306C269.85 306 260 316.521 260 329.5C260 342.479 269.85 353 282 353Z" fill="#00BFA6"/>
<path d="M279.439 339C278.946 339.001 278.466 338.829 278.072 338.509L278.048 338.489L272.9 334.235C272.661 334.037 272.46 333.791 272.309 333.51C272.158 333.229 272.06 332.918 272.02 332.596C271.98 332.274 272 331.946 272.077 331.632C272.155 331.318 272.289 331.024 272.472 330.766C272.655 330.508 272.884 330.291 273.144 330.129C273.405 329.967 273.692 329.861 273.991 329.819C274.289 329.777 274.592 329.798 274.883 329.883C275.173 329.967 275.445 330.113 275.684 330.311L279.018 333.074L286.897 321.967C287.08 321.71 287.308 321.494 287.568 321.332C287.828 321.169 288.115 321.064 288.413 321.021C288.711 320.979 289.013 321 289.303 321.084C289.593 321.168 289.865 321.313 290.104 321.51L290.055 321.584L290.106 321.51C290.586 321.91 290.901 322.499 290.98 323.148C291.06 323.798 290.897 324.455 290.529 324.975L281.261 338.033C281.046 338.334 280.771 338.577 280.455 338.745C280.139 338.912 279.792 338.998 279.441 338.997L279.439 339Z" fill="white"/>
<path d="M306 431.998C306.001 435.149 305.433 438.27 304.328 441.181C303.223 444.093 301.603 446.739 299.56 448.968C297.517 451.196 295.092 452.964 292.423 454.171C289.753 455.377 286.892 455.999 284.002 455.999C283.813 456.003 283.624 455.995 283.436 455.974C279.11 455.853 274.913 454.344 271.37 451.634C267.826 448.925 265.095 445.136 263.516 440.743C261.937 436.349 261.582 431.545 262.495 426.932C263.407 422.319 265.547 418.102 268.647 414.808C271.746 411.515 275.667 409.292 279.92 408.416C284.172 407.541 288.567 408.053 292.554 409.888C296.541 411.722 299.943 414.799 302.335 418.731C304.726 422.664 306.001 427.279 306 431.998Z" fill="#CCCCCC"/>
<path d="M282 558C294.15 558 304 547.255 304 534C304 520.745 294.15 510 282 510C269.85 510 260 520.745 260 534C260 547.255 269.85 558 282 558Z" fill="#CCCCCC"/>
<path d="M306 431.825C306.001 434.999 305.433 438.142 304.327 441.075C303.221 444.007 301.6 446.672 299.556 448.917C297.513 451.162 295.086 452.943 292.415 454.158C289.744 455.373 286.881 455.999 283.99 455.999C283.8 456.003 283.611 455.995 283.423 455.974C280.579 448.187 279.483 439.764 280.226 431.415C280.97 423.065 283.532 415.035 287.696 408C292.817 408.964 297.462 411.883 300.812 416.243C304.161 420.603 305.999 426.122 306 431.825Z" fill="#00BFA6"/>
<path d="M332 420.506C332.003 418.781 332.668 417.128 333.85 415.909C335.032 414.69 336.634 414.003 338.305 414H371.862C373.821 418.113 375.214 422.489 376 427H338.305C336.635 427 335.033 426.316 333.851 425.098C332.669 423.881 332.003 422.229 332 420.506Z" fill="#00BFA6"/>
<path d="M376 437C376.002 441.391 375.449 445.762 374.355 450H338.191C336.549 450 334.974 449.315 333.813 448.096C332.652 446.877 332 445.224 332 443.5C332 441.776 332.652 440.123 333.813 438.904C334.974 437.685 336.549 437 338.191 437H376Z" fill="#00BFA6"/>
<path d="M458.994 520.425C458.044 522.114 456.514 523.324 454.742 523.79C452.969 524.256 451.098 523.939 449.541 522.909L369.296 469.827C368.525 469.316 367.854 468.647 367.322 467.855C366.789 467.064 366.406 466.167 366.193 465.215C365.981 464.263 365.943 463.275 366.082 462.307C366.222 461.339 366.536 460.411 367.006 459.575C367.476 458.739 368.094 458.011 368.824 457.434C369.553 456.856 370.38 456.44 371.258 456.21C372.136 455.979 373.047 455.938 373.94 456.089C374.832 456.241 375.688 456.581 376.459 457.091L456.704 510.173C458.261 511.204 459.377 512.862 459.807 514.785C460.236 516.708 459.944 518.736 458.994 520.425Z" fill="#3F3D56"/>
<path d="M378.976 467.723C373.31 477.685 365.017 485.622 355.146 490.529C345.275 495.437 334.268 497.094 323.518 495.293C312.768 493.491 302.758 488.311 294.753 480.408C286.748 472.504 281.108 462.233 278.547 450.892C275.985 439.551 276.616 427.65 280.361 416.694C284.106 405.737 290.796 396.218 299.585 389.34C308.374 382.461 318.867 378.533 329.738 378.05C340.609 377.568 351.369 380.554 360.658 386.631C373.101 394.791 382.017 407.912 385.451 423.115C388.886 438.317 386.557 454.36 378.976 467.723ZM296.788 413.957C292.539 421.429 290.451 430.084 290.788 438.829C291.125 447.573 293.873 456.014 298.683 463.083C303.493 470.153 310.15 475.534 317.811 478.546C325.473 481.559 333.795 482.067 341.726 480.006C349.657 477.945 356.84 473.409 362.366 466.97C367.893 460.531 371.516 452.479 372.775 443.832C374.035 435.185 372.876 426.332 369.445 418.391C366.013 410.451 360.463 403.78 353.496 399.223C344.151 393.125 332.933 391.252 322.302 394.014C311.67 396.776 302.495 403.949 296.788 413.957Z" fill="#3F3D56"/>
<defs>
<filter id="filter0_d_505_179" x="7" y="99" width="435" height="499" filterUnits="userSpaceOnUse" color-interpolation-filters="sRGB">
<feFlood flood-opacity="0" result="BackgroundImageFix"/>
<feColorMatrix in="SourceAlpha" type="matrix" values="0 0 0 0 0 0 0 0 0 0 0 0 0 0 0 0 0 0 127 0" result="hardAlpha"/>
<feOffset dy="4"/>
<feGaussianBlur stdDeviation="2"/>
<feComposite in2="hardAlpha" operator="out"/>
<feColorMatrix type="matrix" values="0 0 0 0 0 0 0 0 0 0 0 0 0 0 0 0 0 0 0.25 0"/>
<feBlend mode="normal" in2="BackgroundImageFix" result="effect1_dropShadow_505_179"/>
<feBlend mode="normal" in="SourceGraphic" in2="effect1_dropShadow_505_179" result="shape"/>
</filter>
<filter id="filter1_d_505_179" x="203" y="216" width="358" height="439" filterUnits="userSpaceOnUse" color-interpolation-filters="sRGB">
<feFlood flood-opacity="0" result="BackgroundImageFix"/>
<feColorMatrix in="SourceAlpha" type="matrix" values="0 0 0 0 0 0 0 0 0 0 0 0 0 0 0 0 0 0 127 0" result="hardAlpha"/>
<feOffset dy="4"/>
<feGaussianBlur stdDeviation="2"/>
<feComposite in2="hardAlpha" operator="out"/>
<feColorMatrix type="matrix" values="0 0 0 0 0 0 0 0 0 0 0 0 0 0 0 0 0 0 0.25 0"/>
<feBlend mode="normal" in2="BackgroundImageFix" result="effect1_dropShadow_505_179"/>
<feBlend mode="normal" in="SourceGraphic" in2="effect1_dropShadow_505_179" result="shape"/>
</filter>
</defs>
</svg>
