<svg width="820" height="862" viewBox="0 0 820 862" fill="none" xmlns="http://www.w3.org/2000/svg">
<rect x="86" width="587" height="591" rx="118" fill="#2DD4BF"/>
<rect x="127" width="554" height="614" rx="118" fill="#5EEAD4"/>
<g clip-path="url(#clip0_277_2)">
<path d="M104.526 687.336L98.344 802C98.344 802 359.853 561.571 392.432 491.224C425.011 420.877 363.686 246.862 363.686 246.862L227.619 319.06L104.526 687.336Z" fill="#9F616A"/>
<path d="M505.501 198.73L545.746 202.432C545.746 202.432 566.827 246.862 501.669 250.564L505.501 198.73Z" fill="#9F616A"/>
<path d="M505.501 267.225L545.746 270.928C545.746 270.928 566.827 315.357 501.669 319.06L505.501 267.225Z" fill="#9F616A"/>
<path d="M505.501 341.274L545.746 344.977C545.746 344.977 566.827 389.406 501.669 393.109L505.501 341.274Z" fill="#9F616A"/>
<path d="M494.003 415.324L534.248 419.026C534.248 419.026 555.329 463.456 490.17 467.158L494.003 415.324Z" fill="#9F616A"/>
<path d="M525.094 216.579H522.041V135.77C522.041 129.628 520.788 123.546 518.355 117.872C515.922 112.197 512.356 107.042 507.86 102.699C503.364 98.3556 498.026 94.9106 492.152 92.5602C486.278 90.2098 479.982 89 473.624 89H296.389C290.031 89 283.735 90.2097 277.861 92.5601C271.987 94.9105 266.649 98.3556 262.153 102.699C257.657 107.042 254.091 112.197 251.658 117.872C249.224 123.546 247.972 129.628 247.972 135.77V579.093C247.972 585.235 249.224 591.317 251.658 596.991C254.091 602.666 257.657 607.821 262.153 612.164C266.649 616.507 271.986 619.952 277.861 622.303C283.735 624.653 290.031 625.863 296.389 625.863H473.623C486.464 625.863 498.78 620.936 507.86 612.165C516.94 603.394 522.041 591.497 522.041 579.093V274.1H525.094V216.579Z" fill="#3F3D56"/>
<path d="M511.732 136.094V578.768C511.732 583.355 510.798 587.896 508.981 592.134C507.164 596.371 504.501 600.222 501.144 603.465C497.787 606.708 493.801 609.28 489.414 611.035C485.027 612.79 480.326 613.693 475.577 613.693H297.487C292.739 613.693 288.037 612.79 283.651 611.035C279.264 609.28 275.278 606.707 271.921 603.464C268.564 600.221 265.901 596.371 264.084 592.133C262.267 587.896 261.332 583.354 261.332 578.768V136.094C261.332 131.508 262.267 126.966 264.084 122.729C265.901 118.492 268.564 114.641 271.921 111.398C275.278 108.155 279.264 105.583 283.651 103.828C288.037 102.073 292.739 101.169 297.487 101.17H319.1C318.036 103.689 317.629 106.423 317.916 109.13C318.203 111.836 319.175 114.434 320.746 116.692C322.317 118.951 324.439 120.802 326.925 122.081C329.411 123.361 332.185 124.031 335.002 124.031H436.541C439.358 124.029 442.13 123.358 444.615 122.078C447.1 120.798 449.221 118.947 450.792 116.689C452.363 114.431 453.335 111.835 453.622 109.128C453.91 106.422 453.505 103.689 452.443 101.17H475.578C480.325 101.169 485.027 102.073 489.414 103.828C493.8 105.583 497.786 108.155 501.143 111.398C504.5 114.642 507.164 118.492 508.98 122.729C510.797 126.966 511.732 131.508 511.732 136.094Z" fill="#F1F1F1"/>
<path opacity="0.2" d="M545.532 201.87L521.828 210.305L522.255 211.426L545.96 202.991L545.532 201.87Z" fill="black"/>
<path opacity="0.2" d="M545.532 271.146L521.828 279.581L522.255 280.702L545.96 272.267L545.532 271.146Z" fill="black"/>
<path opacity="0.2" d="M545.532 345.2L521.828 353.635L522.255 354.756L545.96 346.321L545.532 345.2Z" fill="black"/>
<path opacity="0.2" d="M533.113 419.275L521.573 424.626L522.107 425.702L533.648 420.352L533.113 419.275Z" fill="black"/>
<path d="M508.455 422.622L511.732 442.402V578.768C511.745 584.797 510.13 590.726 507.046 595.968L474.131 540.224L462.273 423.482L459.318 394.327L503.918 395.234L508.455 422.622Z" fill="#9F616A"/>
<path d="M-76 747.057L138.505 510.662L146.171 358.861L226.661 229.275L249.658 173.738C249.658 173.738 303.318 179.292 259.24 284.812L241.034 341.274C257.445 375.419 253.583 412.612 253.583 450.257V579.641C253.583 610.107 115.653 776.054 98.1585 801.403L-76 747.057Z" fill="#9F616A"/>
<path opacity="0.2" d="M243.349 240.256L227.346 232.659L227.891 231.587L242.676 238.606L264.995 182.083L266.149 182.509L243.349 240.256Z" fill="black"/>
<path d="M388.232 592.253C406.67 592.253 421.617 577.815 421.617 560.004C421.617 542.193 406.67 527.755 388.232 527.755C369.794 527.755 354.847 542.193 354.847 560.004C354.847 577.815 369.794 592.253 388.232 592.253Z" fill="#6CDAB1"/>
<path d="M310.334 582.947C322.768 582.947 332.848 573.209 332.848 561.198C332.848 549.187 322.768 539.45 310.334 539.45C297.899 539.45 287.82 549.187 287.82 561.198C287.82 573.209 297.899 582.947 310.334 582.947Z" fill="white"/>
<path d="M310.334 583.892C305.687 583.892 301.145 582.561 297.282 580.068C293.418 577.574 290.407 574.03 288.629 569.883C286.851 565.736 286.386 561.173 287.292 556.771C288.199 552.369 290.436 548.325 293.722 545.151C297.007 541.977 301.193 539.816 305.75 538.94C310.308 538.065 315.031 538.514 319.324 540.232C323.617 541.95 327.286 544.858 329.868 548.59C332.449 552.322 333.827 556.71 333.827 561.198C333.82 567.215 331.342 572.983 326.938 577.238C322.534 581.492 316.562 583.885 310.334 583.892ZM310.334 540.396C306.074 540.396 301.911 541.616 298.369 543.901C294.828 546.187 292.068 549.436 290.438 553.237C288.808 557.039 288.381 561.221 289.212 565.257C290.043 569.292 292.094 572.999 295.106 575.908C298.118 578.817 301.955 580.799 306.132 581.601C310.31 582.404 314.64 581.992 318.575 580.417C322.51 578.843 325.873 576.177 328.24 572.756C330.606 569.335 331.869 565.313 331.869 561.198C331.863 555.683 329.592 550.395 325.554 546.495C321.517 542.596 316.043 540.402 310.334 540.396Z" fill="#CBCBCB"/>
<path d="M315.16 568.763H293.218C293.191 568.763 293.163 568.761 293.136 568.756L303.514 551.393C303.578 551.284 303.67 551.194 303.781 551.132C303.892 551.069 304.018 551.036 304.147 551.036C304.275 551.036 304.402 551.069 304.513 551.132C304.624 551.194 304.716 551.284 304.779 551.393L311.744 563.045L312.078 563.602L315.16 568.763Z" fill="#E5E5E5"/>
<path d="M327.377 568.763H308.399L312.076 563.603L312.341 563.231L317.133 556.507C317.218 556.404 317.324 556.32 317.445 556.259C317.566 556.198 317.698 556.163 317.834 556.155C317.97 556.147 318.106 556.167 318.233 556.213C318.361 556.26 318.477 556.331 318.573 556.424C318.598 556.45 318.621 556.478 318.642 556.507L327.377 568.763Z" fill="#E5E5E5"/>
<path d="M464.894 582.947C477.328 582.947 487.408 573.209 487.408 561.198C487.408 549.187 477.328 539.45 464.894 539.45C452.46 539.45 442.38 549.187 442.38 561.198C442.38 573.209 452.46 582.947 464.894 582.947Z" fill="white"/>
<path d="M464.894 583.892C460.248 583.892 455.705 582.561 451.842 580.068C447.978 577.574 444.967 574.03 443.189 569.883C441.411 565.736 440.946 561.173 441.852 556.771C442.759 552.369 444.996 548.325 448.282 545.151C451.567 541.977 455.753 539.816 460.311 538.94C464.868 538.065 469.592 538.514 473.884 540.232C478.177 541.95 481.846 544.858 484.428 548.59C487.009 552.322 488.387 556.71 488.387 561.198C488.38 567.215 485.903 572.983 481.498 577.238C477.094 581.492 471.123 583.885 464.894 583.892ZM464.894 540.396C460.635 540.396 456.471 541.616 452.93 543.901C449.388 546.187 446.628 549.436 444.998 553.237C443.368 557.039 442.941 561.221 443.772 565.257C444.603 569.292 446.654 572.999 449.666 575.908C452.678 578.817 456.515 580.799 460.693 581.601C464.87 582.404 469.2 581.992 473.135 580.417C477.07 578.843 480.434 576.177 482.8 572.756C485.166 569.335 486.429 565.313 486.429 561.198C486.423 555.683 484.152 550.395 480.115 546.495C476.077 542.596 470.604 540.402 464.894 540.396Z" fill="#CBCBCB"/>
<path d="M474.194 558.886L473.462 559.594V554.474C473.462 554.199 473.349 553.936 473.148 553.742C472.947 553.548 472.675 553.439 472.391 553.439H456.326C456.185 553.439 456.045 553.465 455.915 553.517C455.785 553.569 455.666 553.645 455.566 553.741C455.467 553.837 455.387 553.951 455.333 554.077C455.279 554.203 455.251 554.337 455.251 554.474C455.251 554.61 455.279 554.745 455.333 554.87C455.387 554.996 455.467 555.11 455.566 555.206C455.666 555.303 455.785 555.379 455.915 555.43C456.045 555.482 456.185 555.509 456.326 555.508H471.32V559.594L470.588 558.886C470.439 558.742 470.248 558.643 470.04 558.603C469.832 558.563 469.617 558.584 469.421 558.662C469.225 558.74 469.058 558.873 468.94 559.043C468.823 559.213 468.76 559.413 468.76 559.618V559.669C468.76 559.944 468.873 560.207 469.073 560.401L471.634 562.874C471.733 562.97 471.851 563.046 471.981 563.098C472.111 563.15 472.25 563.177 472.391 563.177C472.532 563.177 472.671 563.15 472.801 563.098C472.931 563.046 473.049 562.97 473.148 562.874L475.709 560.401C475.91 560.207 476.022 559.944 476.022 559.669V559.618C476.022 559.413 475.96 559.213 475.842 559.043C475.724 558.873 475.557 558.74 475.361 558.662C475.166 558.584 474.95 558.563 474.743 558.603C474.535 558.643 474.344 558.742 474.194 558.886Z" fill="#E5E5E5"/>
<path d="M473.462 566.888H458.468V562.803L459.2 563.51C459.35 563.655 459.541 563.753 459.748 563.793C459.956 563.833 460.172 563.813 460.367 563.735C460.563 563.656 460.73 563.524 460.848 563.353C460.966 563.183 461.028 562.983 461.028 562.779V562.727C461.028 562.453 460.915 562.19 460.715 561.996L458.154 559.523C458.055 559.427 457.937 559.35 457.807 559.298C457.677 559.246 457.538 559.22 457.397 559.22C457.256 559.22 457.117 559.246 456.987 559.298C456.857 559.35 456.739 559.427 456.64 559.523L454.079 561.996C453.879 562.19 453.766 562.453 453.766 562.727V562.779C453.766 562.983 453.829 563.183 453.946 563.354C454.064 563.524 454.231 563.656 454.427 563.735C454.623 563.813 454.838 563.833 455.046 563.793C455.254 563.753 455.445 563.655 455.594 563.51L456.326 562.803V567.923C456.326 568.197 456.439 568.46 456.64 568.654C456.841 568.848 457.113 568.957 457.397 568.957H473.462C473.603 568.958 473.743 568.932 473.873 568.88C474.003 568.828 474.122 568.752 474.222 568.656C474.322 568.56 474.401 568.445 474.455 568.32C474.509 568.194 474.537 568.059 474.537 567.923C474.537 567.787 474.509 567.652 474.455 567.526C474.401 567.4 474.322 567.286 474.222 567.19C474.122 567.094 474.003 567.018 473.873 566.966C473.743 566.914 473.603 566.888 473.462 566.888Z" fill="#E5E5E5"/>
<path d="M330.075 143.426H274.827V145.815H330.075V143.426Z" fill="white"/>
<path d="M414.156 143.426H358.908V145.815H414.156V143.426Z" fill="white"/>
<path d="M498.237 143.426H442.989V145.815H498.237V143.426Z" fill="white"/>
<path d="M330.075 508.917H274.827V511.306H330.075V508.917Z" fill="white"/>
<path d="M414.156 508.917H358.908V511.306H414.156V508.917Z" fill="white"/>
<path d="M498.237 508.917H442.989V511.306H498.237V508.917Z" fill="white"/>
<g clip-path="url(#clip1_277_2)">
<path d="M448.359 300.244C443.333 293.17 431.607 291.505 422.896 294.88C414.186 298.255 408.166 305.45 404.073 312.97C399.98 320.489 397.406 328.591 393.199 336.063C380.822 358.047 355.757 372.404 339.99 392.663C328.144 407.885 321.871 426.367 322.303 444.772C322.469 451.822 323.773 459.239 328.807 464.749C336.278 472.928 349.506 474.606 361.418 475.683C368.336 476.309 376.829 476.291 380.392 471.07C381.801 469.004 366.655 461.799 366.898 459.403C368.209 446.477 384.943 438.268 386.254 425.341C388.31 434.348 385.675 443.647 386.091 452.824C386.507 462.002 391.683 472.382 401.965 474.28C405.137 474.866 408.72 474.46 411.124 472.559C413.529 470.658 414.231 467.066 412.089 464.938C414.283 466.896 417.984 467.405 420.76 466.13C423.535 464.855 425.155 461.901 424.553 459.212C424.111 457.234 422.651 455.571 421.386 453.885C414.536 444.758 412.751 432.863 416.677 422.5C423.617 404.181 446.407 392.224 450.268 373.224C453.135 359.114 444.955 343.126 453.635 330.968C457.547 325.489 464.189 322.035 469.486 317.533C474.784 313.031 478.927 306.143 475.895 300.253L448.817 300.228" fill="#3F3D56"/>
<path d="M364.854 461.962C364.181 461.962 363.49 461.804 362.823 461.492C361.285 460.771 360.126 459.347 359.869 457.862C359.442 455.393 360.787 452.995 361.868 451.069C364.826 445.8 367.749 440.165 368.18 434.311C368.651 427.92 365.685 421.995 360.624 419.217C356.862 417.153 351.84 416.623 346.483 417.724C341.739 418.699 337.476 420.693 332.793 423.005C332.421 423.189 331.95 423.074 331.74 422.749C331.53 422.425 331.661 422.012 332.032 421.829C336.644 419.551 341.193 417.423 346.129 416.408C351.892 415.225 357.331 415.815 361.446 418.073C366.981 421.111 370.23 427.519 369.723 434.398C369.274 440.499 366.282 446.273 363.256 451.664C362.219 453.513 361.043 455.609 361.398 457.66C361.582 458.721 362.448 459.783 363.553 460.301C364.092 460.553 364.913 460.781 365.766 460.434C366.153 460.276 366.613 460.423 366.793 460.761C366.973 461.099 366.806 461.501 366.419 461.658C365.922 461.861 365.394 461.962 364.854 461.962Z" fill="#2F2E41"/>
<path d="M424.094 299.78C423.082 302.203 424.432 304.919 426.304 306.913C428.176 308.908 430.58 310.512 432.229 312.651C435.686 317.135 435.167 323.264 432.511 328.147C429.855 333.031 425.377 336.943 420.985 340.751C421.31 339.118 420.365 337.47 419.078 336.253C417.79 335.036 416.17 334.133 414.73 333.054C408.026 328.031 405.929 318.878 409.903 311.986" fill="#2F2E41"/>
<path d="M332.53 443.937C326.852 443.329 322.055 447.795 316.388 448.48C309.835 449.272 303.808 444.74 300.892 439.549C297.977 434.359 297.228 428.468 295.222 422.958C293.217 417.448 289.347 411.867 283.042 410.116C280.397 409.381 277.404 409.421 274.946 410.549C272.489 411.677 270.688 413.979 270.75 416.404C270.825 419.389 273.444 421.777 275.03 424.421C277.554 428.627 277.476 433.609 278.59 438.257C281.271 449.434 291.673 458.912 304.338 461.718C310.887 463.169 318.219 462.836 323.893 459.629C329.566 456.422 333.024 449.963 330.924 444.351" fill="#3F3D56"/>
</g>
</g>
<rect x="-6" y="648" width="124" height="154" rx="31" fill="#9F616A"/>
<defs>
<clipPath id="clip0_277_2">
<rect width="625" height="713" fill="white" transform="translate(-76 89)"/>
</clipPath>
<clipPath id="clip1_277_2">
<rect width="507.097" height="302.348" fill="white" transform="translate(188.423 173.612)"/>
</clipPath>
</defs>
</svg>
