<svg width="792" height="833" viewBox="0 0 792 833" fill="none" xmlns="http://www.w3.org/2000/svg">
<rect x="204.5" width="587" height="591" rx="118" fill="#5EEAD4"/>
<path d="M234.5 176C234.5 110.83 287.33 58 352.5 58H619.5C684.67 58 737.5 110.83 737.5 176V466C737.5 531.17 684.67 584 619.5 584H352.5C287.33 584 234.5 531.17 234.5 466V176Z" fill="#2DD4BF"/>
<path d="M234.5 176C234.5 110.83 287.33 58 352.5 58H619.5C684.67 58 737.5 110.83 737.5 176V466C737.5 531.17 684.67 584 619.5 584H352.5C287.33 584 234.5 531.17 234.5 466V176Z" fill="#2DD4BF"/>
<path d="M195.436 680.199L169 833C169 833 436.272 559.08 467.002 491.333C497.733 423.586 439.887 256 439.887 256L311.543 325.53L195.436 680.199Z" fill="#9F616A"/>
<path d="M580.001 207.73L620.246 211.432C620.246 211.432 641.327 255.862 576.168 259.564L580.001 207.73Z" fill="#9F616A"/>
<path d="M580.001 276.225L620.246 279.928C620.246 279.928 641.327 324.357 576.168 328.06L580.001 276.225Z" fill="#9F616A"/>
<path d="M580.001 350.274L620.246 353.977C620.246 353.977 641.327 398.406 576.168 402.109L580.001 350.274Z" fill="#9F616A"/>
<path d="M568.503 424.324L608.748 428.026C608.748 428.026 629.829 472.456 564.67 476.158L568.503 424.324Z" fill="#9F616A"/>
<path d="M599.594 225.579H596.54V144.77C596.54 138.628 595.288 132.546 592.855 126.872C590.422 121.197 586.855 116.042 582.359 111.699C577.863 107.356 572.526 103.911 566.652 101.56C560.777 99.2098 554.481 98 548.123 98H370.889C364.531 98 358.235 99.2097 352.361 101.56C346.486 103.911 341.149 107.356 336.653 111.699C332.157 116.042 328.59 121.197 326.157 126.872C323.724 132.546 322.472 138.628 322.472 144.77V588.093C322.472 594.235 323.724 600.317 326.157 605.991C328.59 611.666 332.157 616.821 336.653 621.164C341.149 625.507 346.486 628.952 352.36 631.303C358.235 633.653 364.531 634.863 370.889 634.863H548.123C560.964 634.863 573.279 629.936 582.359 621.165C591.439 612.394 596.54 600.497 596.54 588.093V283.1H599.594V225.579Z" fill="#3F3D56"/>
<path d="M586.232 145.094V587.768C586.232 592.355 585.298 596.896 583.481 601.134C581.664 605.371 579.001 609.222 575.644 612.465C572.286 615.708 568.301 618.28 563.914 620.035C559.527 621.79 554.825 622.693 550.077 622.693H371.986C367.238 622.693 362.537 621.79 358.15 620.035C353.764 618.28 349.778 615.707 346.421 612.464C343.063 609.221 340.4 605.371 338.584 601.133C336.767 596.896 335.832 592.355 335.832 587.768V145.094C335.832 140.508 336.767 135.966 338.584 131.729C340.4 127.492 343.064 123.641 346.421 120.398C349.778 117.155 353.764 114.583 358.15 112.828C362.537 111.073 367.238 110.169 371.986 110.17H393.6C392.536 112.689 392.129 115.423 392.416 118.13C392.703 120.836 393.675 123.434 395.246 125.692C396.817 127.951 398.939 129.802 401.425 131.081C403.911 132.361 406.685 133.031 409.502 133.031H511.041C513.857 133.029 516.63 132.358 519.115 131.078C521.6 129.798 523.721 127.947 525.292 125.689C526.862 123.431 527.834 120.835 528.122 118.128C528.41 115.422 528.005 112.689 526.943 110.17H550.077C554.825 110.169 559.527 111.073 563.913 112.828C568.3 114.583 572.286 117.155 575.643 120.398C579 123.642 581.663 127.492 583.48 131.729C585.297 135.966 586.232 140.508 586.232 145.094Z" fill="#F1F1F1"/>
<path opacity="0.2" d="M620.032 210.87L596.328 219.305L596.756 220.426L620.46 211.991L620.032 210.87Z" fill="black"/>
<path opacity="0.2" d="M620.032 280.146L596.328 288.581L596.756 289.702L620.46 281.267L620.032 280.146Z" fill="black"/>
<path opacity="0.2" d="M620.032 354.2L596.328 362.635L596.756 363.756L620.46 355.321L620.032 354.2Z" fill="black"/>
<path opacity="0.2" d="M607.613 428.275L596.072 433.626L596.607 434.702L608.148 429.352L607.613 428.275Z" fill="black"/>
<path d="M582.955 431.622L586.232 451.402V587.768C586.245 593.797 584.63 599.726 581.546 604.968L548.631 549.224L536.773 432.482L533.818 403.327L578.418 404.234L582.955 431.622Z" fill="#9F616A"/>
<path d="M0 738.714L192.434 535.486L220.594 363.876L301.057 237.263L324.046 183C324.046 183 377.688 188.426 333.625 291.526L315.425 346.693C331.831 380.054 327.969 416.394 327.969 453.176V579.591C193.933 794.406 186.43 808.233 168.942 833H33.4884L0 738.714Z" fill="#9F616A"/>
<path opacity="0.2" d="M317.849 249.256L301.846 241.659L302.391 240.587L317.176 247.606L339.495 191.083L340.649 191.509L317.849 249.256Z" fill="black"/>
<path d="M462.732 601.253C481.17 601.253 496.117 586.815 496.117 569.004C496.117 551.193 481.17 536.755 462.732 536.755C444.294 536.755 429.347 551.193 429.347 569.004C429.347 586.815 444.294 601.253 462.732 601.253Z" fill="#00C1A8"/>
<path d="M384.834 591.947C397.268 591.947 407.348 582.209 407.348 570.198C407.348 558.187 397.268 548.45 384.834 548.45C372.399 548.45 362.319 558.187 362.319 570.198C362.319 582.209 372.399 591.947 384.834 591.947Z" fill="white"/>
<path d="M384.834 592.892C380.187 592.892 375.645 591.561 371.782 589.068C367.918 586.574 364.907 583.03 363.129 578.883C361.351 574.736 360.886 570.173 361.792 565.771C362.699 561.369 364.936 557.325 368.222 554.151C371.507 550.977 375.693 548.816 380.251 547.94C384.808 547.065 389.532 547.514 393.824 549.232C398.117 550.95 401.786 553.858 404.368 557.59C406.949 561.322 408.327 565.71 408.327 570.198C408.32 576.215 405.843 581.983 401.438 586.238C397.034 590.492 391.063 592.885 384.834 592.892ZM384.834 549.396C380.575 549.396 376.411 550.616 372.87 552.901C369.328 555.187 366.568 558.436 364.938 562.237C363.308 566.039 362.881 570.221 363.712 574.257C364.543 578.292 366.594 581.999 369.606 584.908C372.618 587.817 376.455 589.799 380.633 590.601C384.81 591.404 389.14 590.992 393.075 589.417C397.01 587.843 400.374 585.177 402.74 581.756C405.106 578.335 406.369 574.313 406.369 570.198C406.363 564.683 404.092 559.395 400.055 555.495C396.017 551.596 390.544 549.402 384.834 549.396Z" fill="#CBCBCB"/>
<path d="M389.661 577.763H367.719C367.691 577.763 367.664 577.761 367.637 577.756L378.015 560.393C378.078 560.284 378.17 560.194 378.281 560.132C378.392 560.069 378.519 560.036 378.647 560.036C378.776 560.036 378.902 560.069 379.013 560.132C379.124 560.194 379.216 560.284 379.28 560.393L386.244 572.045L386.578 572.602L389.661 577.763Z" fill="#E5E5E5"/>
<path d="M401.877 577.763H382.899L386.576 572.603L386.841 572.231L391.633 565.507C391.718 565.404 391.824 565.32 391.945 565.259C392.066 565.198 392.198 565.163 392.334 565.155C392.47 565.147 392.606 565.167 392.734 565.213C392.861 565.26 392.977 565.331 393.074 565.424C393.098 565.45 393.121 565.478 393.143 565.507L401.877 577.763Z" fill="#E5E5E5"/>
<path d="M539.394 591.947C551.828 591.947 561.908 582.209 561.908 570.198C561.908 558.187 551.828 548.45 539.394 548.45C526.96 548.45 516.88 558.187 516.88 570.198C516.88 582.209 526.96 591.947 539.394 591.947Z" fill="white"/>
<path d="M539.394 592.892C534.748 592.892 530.205 591.561 526.342 589.068C522.478 586.574 519.467 583.03 517.689 578.883C515.911 574.736 515.446 570.173 516.352 565.771C517.259 561.369 519.496 557.325 522.782 554.151C526.067 550.977 530.253 548.816 534.811 547.94C539.368 547.065 544.092 547.514 548.384 549.232C552.677 550.95 556.346 553.858 558.928 557.59C561.509 561.322 562.887 565.71 562.887 570.198C562.88 576.215 560.403 581.983 555.998 586.238C551.594 590.492 545.623 592.885 539.394 592.892ZM539.394 549.396C535.135 549.396 530.971 550.616 527.43 552.901C523.888 555.187 521.128 558.436 519.498 562.237C517.868 566.039 517.441 570.221 518.272 574.257C519.103 578.292 521.154 581.999 524.166 584.908C527.178 587.817 531.015 589.799 535.193 590.601C539.37 591.404 543.7 590.992 547.635 589.417C551.57 587.843 554.934 585.177 557.3 581.756C559.666 578.335 560.929 574.313 560.929 570.198C560.923 564.683 558.652 559.395 554.615 555.495C550.577 551.596 545.104 549.402 539.394 549.396Z" fill="#CBCBCB"/>
<path d="M548.694 567.886L547.962 568.594V563.474C547.962 563.199 547.849 562.936 547.648 562.742C547.447 562.548 547.175 562.439 546.891 562.439H530.826C530.685 562.439 530.545 562.465 530.415 562.517C530.285 562.569 530.166 562.645 530.066 562.741C529.967 562.837 529.887 562.951 529.833 563.077C529.779 563.203 529.751 563.337 529.751 563.474C529.751 563.61 529.779 563.745 529.833 563.87C529.887 563.996 529.967 564.11 530.066 564.206C530.166 564.303 530.285 564.379 530.415 564.43C530.545 564.482 530.685 564.509 530.826 564.508H545.82V568.594L545.088 567.886C544.939 567.742 544.748 567.643 544.54 567.603C544.332 567.563 544.117 567.584 543.921 567.662C543.725 567.74 543.558 567.873 543.44 568.043C543.323 568.213 543.26 568.413 543.26 568.618V568.669C543.26 568.944 543.373 569.207 543.573 569.401L546.134 571.874C546.233 571.97 546.351 572.046 546.481 572.098C546.611 572.15 546.75 572.177 546.891 572.177C547.032 572.177 547.171 572.15 547.301 572.098C547.431 572.046 547.549 571.97 547.648 571.874L550.209 569.401C550.41 569.207 550.522 568.944 550.522 568.669V568.618C550.522 568.413 550.46 568.213 550.342 568.043C550.224 567.873 550.057 567.74 549.861 567.662C549.666 567.584 549.45 567.563 549.243 567.603C549.035 567.643 548.844 567.742 548.694 567.886Z" fill="#E5E5E5"/>
<path d="M547.962 575.888H532.968V571.803L533.7 572.51C533.85 572.655 534.041 572.753 534.248 572.793C534.456 572.833 534.672 572.813 534.867 572.735C535.063 572.656 535.23 572.524 535.348 572.353C535.466 572.183 535.528 571.983 535.528 571.779V571.727C535.528 571.453 535.415 571.19 535.215 570.996L532.654 568.523C532.555 568.427 532.437 568.35 532.307 568.298C532.177 568.246 532.038 568.22 531.897 568.22C531.756 568.22 531.617 568.246 531.487 568.298C531.357 568.35 531.239 568.427 531.14 568.523L528.579 570.996C528.378 571.19 528.266 571.453 528.266 571.727V571.779C528.266 571.983 528.328 572.183 528.446 572.354C528.564 572.524 528.731 572.656 528.927 572.735C529.123 572.813 529.338 572.833 529.546 572.793C529.754 572.753 529.945 572.655 530.094 572.51L530.826 571.803V576.923C530.826 577.197 530.939 577.46 531.14 577.654C531.341 577.848 531.613 577.957 531.897 577.957H547.962C548.103 577.958 548.243 577.932 548.373 577.88C548.503 577.828 548.622 577.752 548.722 577.656C548.821 577.56 548.901 577.445 548.955 577.32C549.009 577.194 549.037 577.059 549.037 576.923C549.037 576.787 549.009 576.652 548.955 576.526C548.901 576.4 548.821 576.286 548.722 576.19C548.622 576.094 548.503 576.018 548.373 575.966C548.243 575.914 548.103 575.888 547.962 575.888Z" fill="#E5E5E5"/>
<path d="M404.575 152.426H349.327V154.815H404.575V152.426Z" fill="white"/>
<path d="M488.656 152.426H433.408V154.815H488.656V152.426Z" fill="white"/>
<path d="M572.737 152.426H517.489V154.815H572.737V152.426Z" fill="white"/>
<path d="M404.575 517.917H349.327V520.306H404.575V517.917Z" fill="#14B8A6"/>
<path d="M488.656 517.917H433.408V520.306H488.656V517.917Z" fill="#042F2E"/>
<path d="M572.737 517.917H517.489V520.306H572.737V517.917Z" fill="#14B8A6"/>
<path d="M536.738 239.472C530.256 228.943 515.132 226.466 503.898 231.489C492.665 236.511 484.9 247.22 479.622 258.412C474.343 269.604 471.023 281.663 465.598 292.783C449.635 325.503 417.309 346.872 396.975 377.024C381.697 399.679 373.606 427.187 374.164 454.581C374.377 465.073 376.06 476.112 382.552 484.313C392.187 496.487 409.248 498.984 424.609 500.587C433.533 501.518 444.485 501.492 449.081 493.72C450.898 490.647 431.364 479.923 431.678 476.357C433.369 457.118 454.95 444.9 456.641 425.661C459.293 439.067 455.895 452.906 456.431 466.565C456.967 480.224 463.642 495.674 476.903 498.499C480.995 499.37 485.615 498.767 488.716 495.937C491.817 493.107 492.723 487.761 489.96 484.595C492.789 487.509 497.563 488.266 501.143 486.369C504.722 484.471 506.811 480.075 506.035 476.072C505.465 473.129 503.581 470.653 501.95 468.145C493.116 454.559 490.814 436.856 495.877 421.432C504.828 394.167 534.22 376.371 539.199 348.093C542.897 327.092 532.347 303.296 543.542 285.201C548.587 277.046 557.153 271.906 563.985 265.205C570.817 258.504 576.16 248.252 572.25 239.486L537.328 239.448" fill="#2F2E41"/>
<path d="M429.042 480.165C428.173 480.165 427.282 479.931 426.422 479.465C424.439 478.393 422.944 476.273 422.613 474.063C422.061 470.388 423.797 466.82 425.191 463.952C429.005 456.11 432.776 447.724 433.332 439.011C433.939 429.498 430.113 420.68 423.586 416.546C418.735 413.474 412.258 412.684 405.349 414.323C399.23 415.775 393.733 418.742 387.693 422.184C387.213 422.457 386.605 422.287 386.334 421.803C386.063 421.32 386.232 420.706 386.712 420.433C392.66 417.043 398.526 413.876 404.892 412.365C412.325 410.604 419.34 411.482 424.646 414.843C431.784 419.365 435.975 428.902 435.322 439.141C434.742 448.221 430.884 456.815 426.981 464.838C425.643 467.59 424.126 470.71 424.584 473.762C424.821 475.342 425.938 476.922 427.364 477.693C428.059 478.069 429.118 478.407 430.218 477.891C430.718 477.655 431.31 477.874 431.542 478.378C431.775 478.881 431.559 479.479 431.06 479.714C430.419 480.015 429.738 480.165 429.042 480.165Z" fill="black" fill-opacity="0.5"/>
<path d="M505.443 238.782C504.138 242.388 505.879 246.43 508.293 249.399C510.707 252.367 513.807 254.754 515.934 257.938C520.393 264.611 519.724 273.735 516.298 281.002C512.873 288.27 507.097 294.093 501.433 299.76C501.852 297.33 500.634 294.877 498.973 293.066C497.313 291.255 495.223 289.911 493.367 288.305C484.721 280.829 482.016 267.206 487.141 256.949" fill="#1D1C2B"/>
<path d="M387.354 453.338C380.03 452.433 373.844 459.08 366.535 460.099C358.083 461.278 350.311 454.533 346.551 446.808C342.79 439.083 341.825 430.314 339.238 422.113C336.651 413.913 331.66 405.607 323.529 403C320.118 401.907 316.258 401.966 313.088 403.645C309.919 405.323 307.597 408.75 307.676 412.36C307.773 416.801 311.15 420.356 313.196 424.291C316.451 430.551 316.35 437.966 317.788 444.884C321.245 461.519 334.66 475.626 350.995 479.802C359.441 481.961 368.897 481.467 376.214 476.694C383.531 471.92 387.991 462.307 385.283 453.953" fill="#2F2E41"/>
</svg>
